<?xml version="1.0" encoding="UTF-8"?>
<svg width="22px" height="22px" viewBox="0 0 22 22" xmlns="http://www.w3.org/2000/svg" xmlns:xlink="http://www.w3.org/1999/xlink" version="1.1">
 <!-- Generated by Pixelmator Pro 2.2 -->
 <path id="Elipse" d="M11 22 C5.934 22 1.67 18.575 0.393 13.914 L6.273 12.631 C6.95 14.591 8.81 16 11 16 L11 22 Z M15.652 20.969 L13.115 15.531 C13.646 15.283 14.126 14.944 14.535 14.535 L18.777 18.777 C17.876 19.678 16.821 20.423 15.652 20.969 Z M16 11 C16 8.239 13.761 6 11 6 10.192 6 9.43 6.193 8.754 6.533 L6.057 1.172 C7.543 0.423 9.222 0 11 0 17.075 0 22 4.925 22 11 L16 11 Z M6.002 10.873 L0.047 10.006 C0.285 7.345 1.471 4.959 3.264 3.184 L2.699 4 7.18 7.777 C6.47 8.618 6.031 9.694 6.002 10.873 Z" fill="#ffffff" fill-opacity="1" stroke="none"/>
</svg>
