<?xml version="1.0" encoding="UTF-8"?>
<!-- Generated by Pixelmator Pro 2.4.7 -->
<svg width="18" height="18" viewBox="0 0 18 18" xmlns="http://www.w3.org/2000/svg" xmlns:xlink="http://www.w3.org/1999/xlink">
    <path id="bl" fill="none" stroke="#ffffff" stroke-width="5" stroke-linecap="round" visibility="hidden" d="M 47.890625 -43.234375 L 50.234375 -42.640625 L 54.59375 -40.390625 L 56.9375 -38.390625 L 58.390625 -36.59375 L 60.59375 -32.328125 L 61.484375 -27.21875 L 61.5 -1 L 61.25 1.859375 L 60.34375 5 L 58.421875 8.53125 L 55.765625 11.46875 L 52.484375 13.6875 L 49.53125 14.84375 L 45.3125 15.484375 L 19.046875 15.5 L 16.09375 15.234375 L 13.75 14.640625 L 9.46875 12.4375 L 6.046875 9.1875 L 3.625 4.953125 L 2.734375 1.859375 L 2.5 -0.59375 L 2.5 -27 L 2.734375 -29.859375 L 3.640625 -33 L 5.125 -35.90625 L 7.09375 -38.421875 L 9.390625 -40.390625 L 12.203125 -42.015625 L 15.28125 -43.046875 L 19.140625 -43.5 L 44.953125 -43.5 Z"/>
    <path id="br" fill="none" stroke="#7ad7ff" stroke-width="5" stroke-linecap="round" visibility="hidden" d="M 8.890625 -36.234375 L 11.234375 -35.640625 L 15.59375 -33.390625 L 17.390625 -31.9375 L 19.390625 -29.59375 L 21.59375 -25.328125 L 22.484375 -20.21875 L 22.5 6 L 22.25 8.859375 L 21.34375 12 L 19.421875 15.53125 L 16.765625 18.46875 L 13.484375 20.6875 L 10.53125 21.84375 L 6.3125 22.484375 L -19.953125 22.5 L -22.890625 22.234375 L -25.234375 21.640625 L -29.515625 19.4375 L -32.9375 16.1875 L -35.359375 11.953125 L -36.25 8.859375 L -36.484375 6.390625 L -36.5 -19.84375 L -36.046875 -23.71875 L -35.015625 -26.78125 L -33.390625 -29.59375 L -31.421875 -31.890625 L -28.90625 -33.859375 L -26 -35.34375 L -22.859375 -36.25 L -19.953125 -36.5 L 5.953125 -36.5 Z"/>
    <path id="tr" fill="none" stroke="#ffffff" stroke-width="5" stroke-linecap="round" visibility="hidden" d="M 8.890625 -4.234375 L 11.234375 -3.640625 L 15.59375 -1.390625 L 17.34375 0.03125 L 19.421875 2.4375 L 21.59375 6.65625 L 22.484375 11.765625 L 22.5 38 L 22.25 40.859375 L 21.34375 44 L 19.421875 47.53125 L 16.765625 50.46875 L 13.484375 52.6875 L 10.53125 53.84375 L 6.3125 54.484375 L -19.953125 54.5 L -22.890625 54.234375 L -25.234375 53.640625 L -29.515625 51.4375 L -32.9375 48.1875 L -35.359375 43.953125 L -36.25 40.859375 L -36.484375 38.390625 L -36.5 12.140625 L -36.046875 8.28125 L -35.015625 5.203125 L -33.421875 2.4375 L -31.375 0.078125 L -28.90625 -1.859375 L -26 -3.34375 L -22.859375 -4.25 L -19.953125 -4.5 L 5.953125 -4.5 Z"/>
    <path id="tl" fill="none" stroke="#7ad7ff" stroke-width="5" stroke-linecap="round" d="M 47.890625 2.75 L 50.234375 3.34375 L 54.59375 5.59375 L 56.390625 7.046875 L 58.390625 9.390625 L 60.59375 13.65625 L 61.484375 18.765625 L 61.5 45 L 61.25 47.859375 L 60.34375 51 L 58.421875 54.53125 L 55.765625 57.46875 L 52.484375 59.6875 L 49.53125 60.84375 L 45.3125 61.484375 L 19.046875 61.5 L 16.09375 61.234375 L 13.75 60.640625 L 9.46875 58.4375 L 6.046875 55.1875 L 3.625 50.953125 L 2.734375 47.859375 L 2.5 45.390625 L 2.5 19.140625 L 2.9375 15.265625 L 3.96875 12.203125 L 5.59375 9.390625 L 7.5625 7.09375 L 10.078125 5.125 L 12.984375 3.640625 L 16.125 2.734375 L 19.015625 2.5 L 44.984375 2.5 Z"/>
</svg>
