<?xml version="1.0" encoding="UTF-8"?>
<!-- Generated by Pixelmator Pro 2.4.7 -->
<svg width="18" height="18" viewBox="0 0 18 18" xmlns="http://www.w3.org/2000/svg" xmlns:xlink="http://www.w3.org/1999/xlink">
    <path id="bl" fill="none" stroke="#ffffff" stroke-width="5" stroke-linecap="round" visibility="hidden" d="M 47.890625 -43.234375 L 50.234375 -42.640625 L 54.59375 -40.390625 L 56.9375 -38.390625 L 58.390625 -36.59375 L 60.59375 -32.328125 L 61.484375 -27.21875 L 61.5 -1 L 61.25 1.859375 L 60.34375 5 L 58.421875 8.53125 L 55.765625 11.46875 L 52.484375 13.6875 L 49.53125 14.84375 L 45.3125 15.484375 L 19.046875 15.5 L 16.09375 15.234375 L 13.75 14.640625 L 9.46875 12.4375 L 6.046875 9.1875 L 3.625 4.953125 L 2.734375 1.859375 L 2.5 -0.59375 L 2.5 -27 L 2.734375 -29.859375 L 3.640625 -33 L 5.125 -35.90625 L 7.09375 -38.421875 L 9.390625 -40.390625 L 12.203125 -42.015625 L 15.28125 -43.046875 L 19.140625 -43.5 L 44.953125 -43.5 Z"/>
    <path id="br" fill="none" stroke="#7ad7ff" stroke-width="5" stroke-linecap="round" d="M 1.890625 -43.234375 L 4.234375 -42.640625 L 8.59375 -40.390625 L 10.390625 -38.9375 L 12.390625 -36.59375 L 14.59375 -32.328125 L 15.484375 -27.21875 L 15.5 -1 L 15.25 1.859375 L 14.34375 5 L 12.421875 8.53125 L 9.765625 11.46875 L 6.484375 13.6875 L 3.53125 14.84375 L -0.671875 15.484375 L -26.953125 15.5 L -29.890625 15.234375 L -32.234375 14.640625 L -36.515625 12.4375 L -39.9375 9.1875 L -42.359375 4.953125 L -43.25 1.859375 L -43.484375 -0.59375 L -43.5 -26.84375 L -43.046875 -30.71875 L -42.015625 -33.78125 L -40.390625 -36.59375 L -38.421875 -38.890625 L -35.90625 -40.859375 L -33 -42.34375 L -29.859375 -43.25 L -26.953125 -43.5 L -1.046875 -43.5 Z"/>
    <path id="tr" fill="none" stroke="#ffffff" stroke-width="5" stroke-linecap="round" visibility="hidden" d="M 1.890625 2.75 L 4.234375 3.34375 L 8.59375 5.59375 L 10.390625 7.046875 L 12.390625 9.390625 L 14.59375 13.65625 L 15.484375 18.765625 L 15.5 45 L 15.25 47.859375 L 14.34375 51 L 12.421875 54.53125 L 9.765625 57.46875 L 6.484375 59.6875 L 3.53125 60.84375 L -0.671875 61.484375 L -26.953125 61.5 L -29.890625 61.234375 L -32.234375 60.640625 L -36.515625 58.4375 L -39.9375 55.1875 L -42.359375 50.953125 L -43.25 47.859375 L -43.484375 45.390625 L -43.5 19.140625 L -43.046875 15.28125 L -42.015625 12.203125 L -40.390625 9.390625 L -38.421875 7.09375 L -35.90625 5.125 L -33 3.640625 L -29.859375 2.734375 L -26.984375 2.5 L -1.015625 2.5 Z"/>
    <path id="tl" fill="none" stroke="#7ad7ff" stroke-width="5" stroke-linecap="round" visibility="hidden" d="M 47.890625 2.75 L 50.234375 3.34375 L 54.59375 5.59375 L 56.390625 7.046875 L 58.390625 9.390625 L 60.59375 13.65625 L 61.484375 18.765625 L 61.5 45 L 61.25 47.859375 L 60.34375 51 L 58.421875 54.53125 L 55.765625 57.46875 L 52.484375 59.6875 L 49.53125 60.84375 L 45.3125 61.484375 L 19.046875 61.5 L 16.09375 61.234375 L 13.75 60.640625 L 9.46875 58.4375 L 6.046875 55.1875 L 3.625 50.953125 L 2.734375 47.859375 L 2.5 45.390625 L 2.5 19.140625 L 2.9375 15.265625 L 3.96875 12.203125 L 5.59375 9.390625 L 7.5625 7.09375 L 10.078125 5.125 L 12.984375 3.640625 L 16.125 2.734375 L 19.015625 2.5 L 44.984375 2.5 Z"/>
</svg>
