<?xml version="1.0" encoding="UTF-8"?>
<svg width="32px" height="32px" viewBox="0 0 32 32" xmlns="http://www.w3.org/2000/svg" xmlns:xlink="http://www.w3.org/1999/xlink" version="1.1">
 <!-- Generated by Pixelmator Pro 2.2 -->
 <path id="Traçado-copiar" d="M31.4 7.929 C31.2 6.184 29.8 4.657 28.1 4.548 18.3 3.784 13.5 3.784 3.8 4.548 2.2 4.657 0.8 6.184 0.6 7.929 -0.2 14.365 -0.2 17.637 0.6 24.073 0.8 25.818 2.3 27.346 3.9 27.455 8.7 27.782 12.4 28 16 28 19.6 28 23.3 27.782 28.2 27.455 29.8 27.346 31.2 25.818 31.5 24.073 32.2 17.637 32.2 14.365 31.4 7.929 Z M21.1 17.856 L15.1 22.219 C14.8 22.437 14.4 22.546 14 22.546 13.7 22.546 13.3 22.437 13.1 22.328 12.4 21.891 12 21.237 12 20.364 L12 11.638 C12 10.765 12.4 10.111 13.1 9.674 13.8 9.238 14.5 9.347 15.2 9.784 L21.2 14.147 C21.8 14.583 22.1 15.238 22.1 16.001 22.1 16.765 21.7 17.419 21.1 17.856 Z" fill="#ffffff" fill-opacity="1" stroke="none"/>
</svg>
