<?xml version="1.0" encoding="UTF-8"?>
<!-- Generated by Pixelmator Pro 2.4.7 -->
<svg width="19" height="19" viewBox="0 0 19 19" xmlns="http://www.w3.org/2000/svg" xmlns:xlink="http://www.w3.org/1999/xlink">
    <path id="Traado-copiar-1" fill="none" stroke="#0433ff" stroke-width="1.852941" stroke-linecap="round" stroke-linejoin="round" d="M 11.385583 10.997035 C 11.050715 11.331621 10.782822 11.733124 10.514928 12.201542 C 9.175456 11.063952 7.90296 9.859445 6.76441 8.454186 C 7.233224 8.253434 7.635066 7.918849 7.969933 7.584264 C 9.510324 6.045172 8.974536 4.037659 7.434145 2.498566 C 5.893754 0.959473 3.884548 0.35722 2.344157 1.896313 C 0.803767 3.435406 0.535872 6.31284 1.808369 8.119601 C 4.018496 11.532372 7.434144 14.945143 10.849795 17.220324 C 12.658079 18.424831 15.537942 18.224081 17.078333 16.684986 C 18.618725 15.145895 18.082935 13.138382 16.542545 11.59929 C 15.002152 10.060196 12.992948 9.391026 11.385583 10.997035 Z"/>
    <path id="Traado-copiar" fill="none" stroke="#0433ff" stroke-width="1.852941" stroke-linecap="round" stroke-linejoin="round" visibility="hidden" d="M 11.385583 11.997035 C 11.050715 12.331621 10.782822 12.733124 10.514928 13.201542 C 9.175456 12.063952 7.90296 10.859445 6.76441 9.454186 C 7.233224 9.253434 7.635066 8.918849 7.969933 8.584264 C 9.510324 7.045172 8.974536 5.037659 7.434145 3.498566 C 5.893754 1.959473 3.884548 1.35722 2.344157 2.896313 C 0.803767 4.435406 0.535872 7.31284 1.808369 9.119601 C 4.018496 12.532372 7.434144 15.945143 10.849795 18.220324 C 12.658079 19.424831 15.537942 19.224081 17.078333 17.684986 C 18.618725 16.145895 18.082935 14.138382 16.542545 12.59929 C 15.002152 11.060196 12.992948 10.391026 11.385583 11.997035 Z"/>
</svg>
