<?xml version="1.0" encoding="UTF-8"?>
<!-- Generated by Pixelmator Pro 2.4.7 -->
<svg width="19" height="19" viewBox="0 0 19 19" xmlns="http://www.w3.org/2000/svg" xmlns:xlink="http://www.w3.org/1999/xlink">
    <g id="21x21">
        <path id="Traado-copiar" fill="none" stroke="#0433ff" stroke-width="1.786834" stroke-linecap="round" stroke-linejoin="round" visibility="hidden" d="M 0.2 8.636364 C 0.2 8.636364 8.818544 17.35124 18.700001 8.636364"/>
        <path id="Elipse" fill="none" stroke="#0433ff" stroke-width="1.786834" stroke-linecap="round" stroke-linejoin="round" visibility="hidden" d="M 14 9.5 C 14 4.253295 11.985281 0 9.5 0 C 7.014719 0 5 4.253295 5 9.5 C 5 14.746705 7.014719 19 9.5 19 C 11.985281 19 14 14.746705 14 9.5 Z"/>
        <path id="Elipse-copiar" fill="none" stroke="#0433ff" stroke-width="1.786834" stroke-linecap="round" stroke-linejoin="round" visibility="hidden" d="M 19 9.5 C 19 4.253295 14.746705 0 9.5 0 C 4.253295 0 0 4.253295 0 9.5 C 0 14.746705 4.253295 19 9.5 19 C 14.746705 19 19 14.746705 19 9.5 Z"/>
    </g>
    <g id="19x19">
        <path id="path1" fill="none" stroke="#0433ff" stroke-width="1.598746" stroke-linecap="round" stroke-linejoin="round" d="M 1.178947 8.727273 C 1.178947 8.727273 8.890277 16.524794 17.731579 8.727273"/>
        <path id="path2" fill="none" stroke="#0433ff" stroke-width="1.598746" stroke-linecap="round" stroke-linejoin="round" d="M 13.526316 9.5 C 13.526316 4.805579 11.723673 1 9.5 1 C 7.276327 1 5.473684 4.805579 5.473684 9.5 C 5.473684 14.19442 7.276327 18 9.5 18 C 11.723673 18 13.526316 14.19442 13.526316 9.5 Z"/>
        <path id="path3" fill="none" stroke="#0433ff" stroke-width="1.598746" stroke-linecap="round" stroke-linejoin="round" d="M 18 9.5 C 18 4.805579 14.194421 1 9.5 1 C 4.80558 1 1 4.805579 1 9.5 C 1 14.19442 4.80558 18 9.5 18 C 14.194421 18 18 14.19442 18 9.5 Z"/>
    </g>
    <g id="New-Group-copiar-1">
        <path id="path4" fill="none" stroke="#0433ff" stroke-width="1.786834" stroke-linecap="round" stroke-linejoin="round" visibility="hidden" d="M 1.2 8.636364 C 1.2 8.636364 8.88681 16.409092 17.700001 8.636364"/>
        <path id="path5" fill="none" stroke="#0433ff" stroke-width="1.786834" stroke-linecap="round" stroke-linejoin="round" visibility="hidden" d="M 13.679206 9.490073 C 13.679206 4.884815 11.812556 1.151514 9.509927 1.151514 C 7.207298 1.151514 5.340648 4.884815 5.340648 9.490073 C 5.340648 14.095331 7.207298 17.82863 9.509927 17.82863 C 11.812556 17.82863 13.679206 14.095331 13.679206 9.490073 Z"/>
        <path id="path6" fill="none" stroke="#0433ff" stroke-width="1.786834" stroke-linecap="round" stroke-linejoin="round" visibility="hidden" d="M 17.848486 9.490073 C 17.848486 4.884815 14.115185 1.151514 9.509927 1.151514 C 4.904668 1.151514 1.171369 4.884815 1.171369 9.490073 C 1.171369 14.095331 4.904668 17.82863 9.509927 17.82863 C 14.115185 17.82863 17.848486 14.095331 17.848486 9.490073 Z"/>
    </g>
</svg>
