<?xml version="1.0" encoding="UTF-8"?>
<!-- Generated by Pixelmator Pro 2.4.7 -->
<svg width="52" height="52" viewBox="0 0 52 52" xmlns="http://www.w3.org/2000/svg" xmlns:xlink="http://www.w3.org/1999/xlink">
    <g id="Agrupar">
        <path id="Retngulo-arredondado" fill="#000000" fill-rule="evenodd" stroke="#000000" stroke-width="3" stroke-linecap="round" visibility="hidden" d="M 42.21875 5.90625 L 44.359375 7.203125 L 45.828125 9.1875 L 46.40625 11.015625 L 46.484375 40.171875 L 45.515625 43.34375 L 43.3125 45.546875 L 40.953125 46.40625 L 12.171875 46.5 L 9.703125 46.0625 L 8.15625 45.21875 L 6.40625 43.296875 L 5.734375 41.71875 L 5.5 12.1875 L 6.1875 9.140625 L 7.625 7.203125 L 9.75 5.90625 L 12.15625 5.5 L 39.84375 5.5 Z"/>
        <mask id="mask1" maskUnits="userSpaceOnUse" maskContentUnits="userSpaceOnUse" mask-type="alpha">
            <path id="path1" fill="#000000" fill-rule="evenodd" stroke="#000000" stroke-width="3" stroke-linecap="round" visibility="hidden" d="M 42.21875 5.90625 L 44.359375 7.203125 L 45.828125 9.1875 L 46.40625 11.015625 L 46.484375 40.171875 L 45.515625 43.34375 L 43.3125 45.546875 L 40.953125 46.40625 L 12.171875 46.5 L 9.703125 46.0625 L 8.15625 45.21875 L 6.40625 43.296875 L 5.734375 41.71875 L 5.5 12.1875 L 6.1875 9.140625 L 7.625 7.203125 L 9.75 5.90625 L 12.15625 5.5 L 39.84375 5.5 Z"/>
        </mask>
        <g id="Camada-sem-nome" mask="url(#mask1)">
            <linearGradient id="linearGradient1" x1="26" y1="26" x2="26" y2="4" gradientUnits="userSpaceOnUse">
                <stop offset="0" stop-color="#ffffff" stop-opacity="0.5"/>
                <stop offset="1" stop-color="#ffffff" stop-opacity="0"/>
            </linearGradient>
            <path id="path2" fill="url(#linearGradient1)" fill-rule="evenodd" stroke="none" visibility="hidden" d="M 4 26 L 48 26 L 48 4 L 4 4 Z"/>
        </g>
    </g>
    <path id="Elipse" fill="#000000" fill-rule="evenodd" stroke="none" d="M 52 26 C 52 11.640598 40.359402 0 26 0 C 11.640596 0 0 11.640598 0 26 C 0 40.359406 11.640596 52 26 52 C 40.359402 52 52 40.359406 52 26 Z"/>
    <g id="New-Group-1-copiar">
        <path id="Traado-copiar-4" fill="none" stroke="#ffffff" stroke-width="2" stroke-linecap="round" stroke-linejoin="round" d="M 19 20 L 32 20 L 32 32 L 19 32 Z"/>
        <path id="Traado-copiar-3" fill="none" stroke="#ffffff" stroke-width="2" stroke-linecap="round" stroke-linejoin="round" d="M 19 30 L 24 26 L 28 29 L 32 26"/>
        <path id="Traado-copiar-2" fill="none" stroke="#ffffff" stroke-width="2" stroke-linecap="round" stroke-linejoin="round" d="M 29 24 C 29 24.552 28.552002 25 28 25 C 27.447998 25 27 24.552 27 24 C 27 23.448 27.447998 23 28 23 C 28.552002 23 29 23.448 29 24 Z"/>
        <path id="Traado-copiar-1-1" fill="none" stroke="#ffffff" stroke-width="2" stroke-linecap="round" stroke-linejoin="round" d="M 10 10 L 18 10"/>
        <path id="Traado-copiar-1" fill="none" stroke="#ffffff" stroke-width="2" stroke-linecap="round" stroke-linejoin="round" d="M 10 18 L 10 10"/>
        <g id="New-Group-copiar-7">
            <path id="Traado" fill="none" stroke="#ffffff" stroke-width="2" stroke-linecap="round" stroke-linejoin="round" d="M 10 10 L 18 10"/>
            <path id="path3" fill="none" stroke="#ffffff" stroke-width="2" stroke-linecap="round" stroke-linejoin="round" d="M 10 18 L 10 10"/>
        </g>
        <g id="New-Group-copiar-1">
            <path id="Traado-1" fill="none" stroke="#ffffff" stroke-width="2" stroke-linecap="round" stroke-linejoin="round" d="M 42 42 L 34 42"/>
            <path id="path4" fill="none" stroke="#ffffff" stroke-width="2" stroke-linecap="round" stroke-linejoin="round" d="M 42 34 L 42 42"/>
        </g>
        <g id="New-Group-copiar-2">
            <path id="Traado-2" fill="none" stroke="#ffffff" stroke-width="2" stroke-linecap="round" stroke-linejoin="round" d="M 10 42 L 18 42"/>
            <path id="path5" fill="none" stroke="#ffffff" stroke-width="2" stroke-linecap="round" stroke-linejoin="round" d="M 10 34 L 10 42"/>
        </g>
        <g id="New-Group-copiar-3">
            <path id="Traado-3" fill="none" stroke="#ffffff" stroke-width="2" stroke-linecap="round" stroke-linejoin="round" d="M 42 10 L 34 10"/>
            <path id="Traado-copiar-5" fill="none" stroke="#ffffff" stroke-width="2" stroke-linecap="round" stroke-linejoin="round" d="M 42 18 L 42 10"/>
        </g>
        <g id="New-Group-copiar">
            <path id="Traado-4" fill="none" stroke="#ffffff" stroke-width="2" stroke-linecap="round" stroke-linejoin="round" d="M 14 13 L 17 13"/>
            <path id="Traado-copiar-6" fill="none" stroke="#ffffff" stroke-width="2" stroke-linecap="round" stroke-linejoin="round" d="M 13 17 L 13 13"/>
            <path id="Traado-5" fill="none" stroke="#ffffff" stroke-width="2" stroke-linecap="round" stroke-linejoin="round" d="M 14 14 L 17 17"/>
        </g>
        <g id="New-Group-copiar-4">
            <path id="Traado-6" fill="none" stroke="#ffffff" stroke-width="2" stroke-linecap="round" stroke-linejoin="round" d="M 38 39 L 35 39"/>
            <path id="Traado-copiar-7" fill="none" stroke="#ffffff" stroke-width="2" stroke-linecap="round" stroke-linejoin="round" d="M 39 35 L 39 39"/>
            <path id="Traado-7" fill="none" stroke="#ffffff" stroke-width="2" stroke-linecap="round" stroke-linejoin="round" d="M 38 38 L 35 35"/>
        </g>
        <g id="New-Group-copiar-5">
            <path id="Traado-8" fill="none" stroke="#ffffff" stroke-width="2" stroke-linecap="round" stroke-linejoin="round" d="M 14 39 L 17 39"/>
            <path id="Traado-copiar-8" fill="none" stroke="#ffffff" stroke-width="2" stroke-linecap="round" stroke-linejoin="round" d="M 13 35 L 13 39"/>
            <path id="Traado-9" fill="none" stroke="#ffffff" stroke-width="2" stroke-linecap="round" stroke-linejoin="round" d="M 14 38 L 17 35"/>
        </g>
        <g id="New-Group-copiar-6">
            <path id="Traado-10" fill="none" stroke="#ffffff" stroke-width="2" stroke-linecap="round" stroke-linejoin="round" d="M 38 13 L 35 13"/>
            <path id="Traado-copiar-9" fill="none" stroke="#ffffff" stroke-width="2" stroke-linecap="round" stroke-linejoin="round" d="M 39 17 L 39 13"/>
            <path id="Traado-11" fill="none" stroke="#ffffff" stroke-width="2" stroke-linecap="round" stroke-linejoin="round" d="M 38 14 L 35 17"/>
        </g>
    </g>
</svg>
