<?xml version="1.0" encoding="UTF-8"?>
<svg width="32px" height="32px" viewBox="0 0 32 32" xmlns="http://www.w3.org/2000/svg" xmlns:xlink="http://www.w3.org/1999/xlink" version="1.1">
 <!-- Generated by Pixelmator Pro 2.2 -->
 <g id="New-Group">
  <path id="Traçado" d="M9 32 C4 32 0 28 0 23 L0 15 0 9 C0 4 4 0 9 0 L23 0 C28 0 32 4 32 9 L32 15 32 23 C32 28 28 32 23 32 L9 32 Z M16 23 C19.866 23 23 19.866 23 16 23 12.134 19.866 9 16 9 12.134 9 9 12.134 9 16 9 19.866 12.134 23 16 23 Z M24 9 C25.1 9 26 8.1 26 7 26 5.9 25.1 5 24 5 22.9 5 22 5.9 22 7 22 8.1 22.9 9 24 9 Z" fill="#ffffff" fill-opacity="1" stroke="none"/>
 </g>
 <path id="Elipse" d="M21 16 C21 13.239 18.761 11 16 11 13.239 11 11 13.239 11 16 11 18.761 13.239 21 16 21 18.761 21 21 18.761 21 16 Z" fill="#ffffff" fill-opacity="1" stroke="none"/>
 <path id="Elipse-copiar" d="M20 16 C20 13.791 18.209 12 16 12 13.791 12 12 13.791 12 16 12 18.209 13.791 20 16 20 18.209 20 20 18.209 20 16 Z" fill="#ffffff" fill-opacity="1" stroke="none"/>
</svg>
