<?xml version="1.0" encoding="UTF-8"?>
<!-- Generated by Pixelmator Pro 2.4.7 -->
<svg width="48" height="48" viewBox="0 0 48 48" xmlns="http://www.w3.org/2000/svg" xmlns:xlink="http://www.w3.org/1999/xlink">
    <g id="Agrupar">
        <path id="Linha" fill="none" stroke="#ffffff" stroke-width="2" stroke-linecap="round" stroke-linejoin="round" visibility="hidden" d="M 18 18 L 30 30"/>
        <path id="Linha-copiar" fill="none" stroke="#ffffff" stroke-width="2" stroke-linecap="round" stroke-linejoin="round" visibility="hidden" d="M 18 30 L 30 18"/>
    </g>
    <g id="g1">
        <path id="-" fill="#ffffff" fill-rule="evenodd" stroke="none" d="M 15.344 18.368 C 15.792003 17.935997 16.447996 17.272005 17.312 16.375999 L 21.535999 20.6 C 20.639996 21.464005 19.976002 22.119997 19.544001 22.568001 Z M 21.992001 23 C 26.376022 18.583979 28.591999 16.375999 28.639999 16.375999 C 28.704 16.375999 29.167995 16.823996 30.032 17.719999 L 31.375999 19.040001 C 28.415985 22.016014 23.96003 26.46397 18.007999 32.383999 L 17.6 32.048 C 17.039997 31.551998 16.536003 31.068003 16.087999 30.596001 C 15.639997 30.123997 15.416 29.848 15.416 29.768 C 15.416 29.639999 17.607979 27.384022 21.992001 23 Z M 26.048 27.224001 C 26.672003 26.599997 27.024 26.288 27.104 26.288 C 27.184 26.288 27.903994 26.967993 29.264 28.327999 L 31.304001 30.368 C 30.871998 30.816002 30.208004 31.471996 29.312 32.335999 L 25.112 28.136 Z"/>
        <text id="text1" visibility="hidden" xml:space="preserve" x="13" y="32" font-family="Digital Disk" font-size="24" fill="#ffffff">𐄂</text>
    </g>
</svg>
