<?xml version="1.0" encoding="UTF-8"?>
<!-- Generated by Pixelmator Pro 2.4.7 -->
<svg width="9" height="19" viewBox="0 0 9 19" xmlns="http://www.w3.org/2000/svg" xmlns:xlink="http://www.w3.org/1999/xlink">
    <path id="Retngulo-arredondado" fill="#b8eaff" stroke="#000000" stroke-linecap="round" stroke-linejoin="round" d="M 2.142818 0 C 0.959727 0 0 2.025763 0 4.523809 L 0 14.476191 C 0 16.974237 0.959727 19 2.142818 19 L 6.857182 19 C 8.040273 19 9 16.974237 9 14.476191 L 9 4.523809 C 9 2.025763 8.040273 0 6.857182 0 Z"/>
    <path id="Retngulo-arredondado-copiar" fill="#2ab6f2" stroke="#000000" stroke-linecap="round" stroke-linejoin="round" visibility="hidden" d="M 2.142818 0 C 0.959727 0 0 2.025763 0 4.523809 L 0 14.476191 C 0 16.974237 0.959727 19 2.142818 19 L 6.857182 19 C 8.040273 19 9 16.974237 9 14.476191 L 9 4.523809 C 9 2.025763 8.040273 0 6.857182 0 Z"/>
    <g id="Camada"/>
</svg>
