<?xml version="1.0" encoding="UTF-8"?>
<!-- Generated by Pixelmator Pro 2.4.7 -->
<svg width="63" height="63" viewBox="0 0 63 63" xmlns="http://www.w3.org/2000/svg" xmlns:xlink="http://www.w3.org/1999/xlink">
    <g id="Referncias">
        <g id="New-Group">
            <path id="Retngulo-copiar" fill="#fffb00" fill-rule="evenodd" stroke="none" visibility="hidden" d="M -0 0 L 63 0 L 63 29.647057 L 0 29.647057 Z"/>
            <path id="Retngulo" fill="#ff2600" fill-rule="evenodd" stroke="none" visibility="hidden" d="M 0 63 L 63 63 L 63 14.823528 L 0 14.823528 Z"/>
            <path id="path1" fill="#00fdff" fill-rule="evenodd" stroke="none" visibility="hidden" d="M 0 63 L 63 63 L 63 29.64706 L 0 29.64706 Z"/>
            <path id="path2" fill="none" stroke="#000000" stroke-width="1.235294" stroke-linecap="round" stroke-linejoin="round" visibility="hidden" d="M 0 63 L 63 63 L 63 0 L 0 0 Z"/>
        </g>
        <g id="g1">
            <g id="g2" opacity="0.15">
                <text id="Texto" visibility="hidden" xml:space="preserve"><tspan x="12.950597" y="-107" font-family="Times New Roman" font-size="74.117647" fill="#000000" xml:space="preserve">T</tspan><tspan x="16.551528" y="-21.851448" font-family="Times New Roman" font-size="74.117647" fill="#000000" xml:space="preserve">e</tspan><tspan x="14.470588" y="63.297105" font-family="Times New Roman" font-size="74.117647" fill="#000000" xml:space="preserve">x</tspan><tspan x="22.703872" y="148.445657" font-family="Times New Roman" font-size="74.117647" fill="#000000" xml:space="preserve">t</tspan><tspan x="14.470588" y="233.59421" font-family="Times New Roman" font-size="74.117647" fill="#000000" xml:space="preserve">o</tspan></text>
                <path id="path3" fill="#000000" fill-rule="evenodd" stroke="none" visibility="hidden" d="M 0 29.64706 L 63 29.64706 L 63 28.411766 L 0 28.411766 Z"/>
            </g>
            <g id="g3" opacity="0.05">
                <text id="X" visibility="hidden" xml:space="preserve" x="6" y="64" font-family="Times New Roman" font-size="72.735594" fill="#000000">X</text>
                <path id="path4" fill="#000000" fill-rule="evenodd" stroke="none" visibility="hidden" d="M 0 14.823528 L 63 14.823528 L 63 13.588234 L 0 13.588234 Z"/>
            </g>
            <path id="path5" fill="#000000" fill-rule="evenodd" stroke="none" opacity="0.05" visibility="hidden" d="M 30.882353 63 L 32.117645 63 L 32.117645 0 L 30.882353 0 Z"/>
        </g>
    </g>
    <g id="g4">
        <g id="g5">
            <path id="path6" fill="#ff0000" fill-rule="evenodd" stroke="none" visibility="hidden" d="M 6.411765 57 L 16.294117 57 L 16.294117 47.117645 L 6.411765 47.117645 Z"/>
            <path id="path7" fill="#ff0000" fill-rule="evenodd" stroke="none" visibility="hidden" d="M 45.941177 16.85294 L 55.205883 16.85294 L 55.205883 7.588234 L 45.941177 7.588234 Z"/>
            <path id="path8" fill="#ff0000" fill-rule="evenodd" stroke="none" visibility="hidden" d="M 16.108566 55.579155 L 54.541897 17.145821 L 46.198036 8.80196 L 7.764706 47.235294 Z"/>
        </g>
        <g id="g6">
            <path id="Retngulo-copiar-1" fill="#ff0000" fill-rule="evenodd" stroke="none" visibility="hidden" d="M 6.411765 12.529411 L 11.352942 12.529411 L 11.352942 7.588234 L 6.411765 7.588234 Z"/>
            <path id="Retngulo-copiar-2" fill="#ff0000" fill-rule="evenodd" stroke="none" visibility="hidden" d="M 50.882355 57 L 55.823528 57 L 55.823528 52.058823 L 50.882355 52.058823 Z"/>
            <path id="path9" fill="#ff0000" fill-rule="evenodd" stroke="none" visibility="hidden" d="M 50.84375 56.208984 L 37.652344 43.015625 L 41.285156 39.382813 L 54.476563 52.576172 L 50.84375 56.208984 Z M 20.394531 25.761719 L 7.458984 12.824219 L 11.091797 9.191406 L 24.027344 22.128906 L 20.394531 25.761719 Z"/>
            <path id="path10" fill="#ff0000" fill-rule="evenodd" stroke="none" visibility="hidden" d="M 7.029412 15.617645 L 47.794117 56.382355 L 53.970589 50.205883 L 13.205882 9.441177 Z"/>
        </g>
    </g>
    <g id="New-Group-copiar-2">
        <path id="path11" fill="#ff0000" fill-rule="evenodd" stroke="none" visibility="hidden" d="M 17.774755 62.245342 L 54.83358 25.18652 L 45.225246 15.578186 L 8.166422 52.637009 Z"/>
        <path id="path12" fill="#ff0000" fill-rule="evenodd" stroke="none" visibility="hidden" d="M 8.166422 25.18652 L 45.225246 62.245342 L 54.83358 52.637009 L 17.774755 15.578186 Z"/>
    </g>
    <g id="New-Group-copiar">
        <path id="path13" fill="#ff0000" fill-rule="evenodd" stroke="none" d="M 47.136719 51.552734 L 35.931641 40.347656 L 41.179688 35.101563 L 52.382813 46.304688 L 47.136719 51.552734 Z M 20.736328 25.152344 L 9.474609 13.890625 L 14.722656 8.644531 L 25.984375 19.90625 L 20.736328 25.152344 Z"/>
        <path id="path14" fill="#ff0000" fill-rule="evenodd" stroke="none" d="M 9.433717 44.436501 L 45.384457 8.48576 L 52.651653 15.752953 L 16.700912 51.703697 Z"/>
        <g id="g7" opacity="0.31">
            <path id="path15" fill="#ff0000" fill-rule="evenodd" stroke="none" visibility="hidden" d="M 6.951183 6.87849 L 55.040829 6.87849 L 55.040829 0.533329 L 6.951183 0.533329 Z"/>
            <path id="path16" fill="#ff0000" fill-rule="evenodd" stroke="none" visibility="hidden" d="M 7.953051 60.311428 L 50.699402 60.311428 L 50.699402 53.298355 L 7.953051 53.298355 Z"/>
        </g>
    </g>
</svg>
