<?xml version="1.0" encoding="UTF-8"?>
<!-- Generated by Pixelmator Pro 2.4.7 -->
<svg width="19" height="19" viewBox="0 0 19 19" xmlns="http://www.w3.org/2000/svg" xmlns:xlink="http://www.w3.org/1999/xlink">
    <path id="Retngulo-arredondado" fill="none" stroke="#ffffff" stroke-width="2" stroke-linecap="round" d="M 17.21875 3.484375 L 17.984375 4.921875 L 17.984375 14.09375 L 17.515625 15.203125 L 16.0625 15.984375 L 3.171875 16 L 1.734375 15.484375 L 1.125 14.578125 L 1 5.09375 L 1.265625 4.015625 L 1.671875 3.515625 L 3.15625 3 L 15.84375 3 Z"/>
    <path id="Retngulo" fill="#ffffff" fill-rule="evenodd" stroke="none" d="M 9 6 L 11 6 L 11 4 L 9 4 Z"/>
    <path id="path1" fill="#ffffff" fill-rule="evenodd" stroke="none" d="M 13 6 L 15 6 L 15 4 L 13 4 Z"/>
    <path id="path2" fill="#ffffff" fill-rule="evenodd" stroke="none" d="M 7 8 L 17 8 L 17 6 L 7 6 Z"/>
    <path id="path3" fill="#ffffff" fill-rule="evenodd" stroke="none" d="M 5 8 L 7 8 L 7 4 L 5 4 Z"/>
</svg>
