<?xml version="1.0" encoding="UTF-8"?>
<svg width="32px" height="32px" viewBox="0 0 32 32" xmlns="http://www.w3.org/2000/svg" xmlns:xlink="http://www.w3.org/1999/xlink" version="1.1">
 <!-- Generated by Pixelmator Pro 2.2 -->
 <path id="Traçado" d="M16 0 C7.7 0 1 6.7 1 15 1 18.4 2.1 21.6 4.2 24.2 L2.1 30.6 C2 31 2.1 31.4 2.4 31.7 2.5 31.9 2.8 32 3 32 3.1 32 3.3 32 3.4 31.9 L10.3 28.8 C12.1 29.6 14 30 16 30 24.3 30 31 23.3 31 15 31 6.7 24.3 0 16 0 Z M24.7 20.5 C24.3 21.7 22.8 22.7 21.5 22.9 21.2 23 20.9 23 20.5 23 19.7 23 18.5 22.8 16.4 21.9 14 20.9 11.6 18.8 9.7 16.1 L9.7 16 C9.1 15.1 8 13.4 8 11.6 8 9.4 9.1 8.3 9.5 7.8 10 7.3 10.7 7 11.5 7 L12 7 C12.7 7 13.2 7.2 13.7 8.2 L14.1 9 C14.4 9.8 14.8 10.7 14.9 10.8 15.2 11.4 15.2 11.9 14.9 12.4 14.8 12.7 14.6 12.9 14.4 13.1 14.3 13.3 14.2 13.4 14.1 13.4 14 13.5 14 13.5 13.9 13.6 14.2 14.1 14.8 15 15.6 15.7 16.8 16.8 17.7 17.1 18.2 17.3 18.4 17.1 18.6 16.7 18.9 16.4 L19 16.2 C19.5 15.5 20.3 15.3 21.1 15.6 21.5 15.8 23.7 16.8 23.7 16.8 L23.9 16.9 C24.2 17.1 24.6 17.2 24.8 17.6 25.2 18.5 24.9 19.8 24.7 20.5 Z" fill="#ffffff" fill-opacity="1" stroke="none"/>
</svg>
