<?xml version="1.0" encoding="UTF-8"?>
<svg width="32px" height="32px" viewBox="0 0 32 32" xmlns="http://www.w3.org/2000/svg" xmlns:xlink="http://www.w3.org/1999/xlink" version="1.1">
 <!-- Generated by Pixelmator Pro 2.2 -->
 <path id="Elipse" d="M32 16 C32 7.163 24.837 0 16 0 7.163 0 0 7.163 0 16 0 24.837 7.163 32 16 32 24.837 32 32 24.837 32 16 Z" fill="#ff0000" fill-opacity="1" stroke="none"/>
 <path id="Menos" d="M7.115 18.227 C7.115 18.227 6 18.226 6 17.105 6 15.985 6 14.885 6 14.885 6 14.885 6.011 13.783 7.117 13.783 7.928 13.783 10.35 13.783 12 13.783 L12 14 20 14 20 13.779 24.889 13.779 C24.889 13.779 26 13.778 26 14.891 26 16.003 26 17.115 26 17.115 26 17.115 26.008 18.227 24.889 18.227 24.664 18.227 21.842 18.227 20 18.227 L20 18 12 18 12 18.227 7.115 18.227 Z" fill="#ffffff" fill-opacity="1" stroke="none"/>
</svg>
