<?xml version="1.0" encoding="UTF-8"?>
<svg width="42px" height="42px" viewBox="0 0 42 42" xmlns="http://www.w3.org/2000/svg" xmlns:xlink="http://www.w3.org/1999/xlink" version="1.1">
 <!-- Generated by Pixelmator Pro 2.2 -->
 <g id="New-Group">
  <path id="!" d="M21.443 25.148 L20.906 25.148 C20.849 24.22 20.662 23.097 20.345 21.779 L19.71 19.118 C19.327 17.523 19.136 16.379 19.136 15.687 19.136 15.061 19.323 14.556 19.698 14.174 20.072 13.791 20.56 13.6 21.163 13.6 21.749 13.6 22.235 13.793 22.621 14.18 23.008 14.566 23.201 15.057 23.201 15.651 23.201 16.269 22.998 17.425 22.591 19.118 L21.944 21.779 C21.716 22.723 21.549 23.846 21.443 25.148 Z M21.187 26.893 C21.732 26.893 22.198 27.087 22.585 27.473 22.971 27.86 23.165 28.33 23.165 28.883 23.165 29.428 22.971 29.894 22.585 30.281 22.198 30.667 21.732 30.861 21.187 30.861 20.642 30.861 20.176 30.667 19.789 30.281 19.403 29.894 19.209 29.428 19.209 28.883 19.209 28.338 19.401 27.87 19.783 27.479 20.166 27.089 20.634 26.893 21.187 26.893 Z" fill="#ff0000" fill-opacity="1" stroke="none"/>
  <path id="Triângulo" d="M21 2 L3 35 39 35 Z" fill="none" stroke="#ff0000" stroke-width="3" stroke-opacity="1" stroke-linejoin="round" stroke-linecap="round"/>
 </g>
</svg>
