<?xml version="1.0" encoding="UTF-8"?>
<!-- Generated by Pixelmator Pro 2.4.7 -->
<svg width="20" height="19" viewBox="0 0 20 19" xmlns="http://www.w3.org/2000/svg" xmlns:xlink="http://www.w3.org/1999/xlink">
    <g id="New-Group">
        <path id="Traado" fill="none" stroke="#0433ff" stroke-width="2.065217" stroke-linecap="round" stroke-linejoin="round" d="M 7.434783 10.73913 C 8.152615 11.698791 9.251865 12.299362 10.447232 12.384972 C 11.642598 12.470581 12.816216 12.032789 13.663479 11.185219 L 16.141741 8.706957 C 17.707056 7.08626 17.684668 4.510084 16.091417 2.916838 C 14.498167 1.323591 11.921993 1.301207 10.301299 2.866528 L 8.880436 4.279131"/>
        <path id="path1" fill="none" stroke="#0433ff" stroke-width="2.065217" stroke-linecap="round" stroke-linejoin="round" d="M 10.73913 9.086957 C 10.021297 8.127296 8.922048 7.526725 7.72668 7.441115 C 6.531313 7.355505 5.357697 7.793298 4.510434 8.640869 L 2.032174 11.119131 C 0.466841 12.739827 0.489224 15.316017 2.082481 16.909267 C 3.675738 18.50252 6.251927 18.524895 7.872618 16.959558 L 9.285218 15.546956"/>
    </g>
    <g id="New-Group-copiar">
        <path id="path2" fill="none" stroke="#800080" stroke-width="1.847826" stroke-linecap="round" stroke-linejoin="round" visibility="hidden" d="M 7.652174 10.608696 C 8.294445 11.467339 9.277986 12.004692 10.347524 12.081291 C 11.417062 12.157888 12.46714 11.76618 13.225218 11.007827 L 15.44261 8.790435 C 16.843157 7.340338 16.823124 5.035338 15.397584 3.609802 C 13.972045 2.184265 11.667047 2.164238 10.216951 3.564788 L 8.945653 4.828696"/>
        <path id="path3" fill="none" stroke="#800080" stroke-width="1.847826" stroke-linecap="round" stroke-linejoin="round" visibility="hidden" d="M 10.608696 9.130435 C 9.966424 8.271791 8.982884 7.734438 7.913345 7.65784 C 6.843806 7.581242 5.793729 7.972951 5.035652 8.731303 L 2.818261 10.948696 C 1.4177 12.398792 1.437727 14.703804 2.863273 16.129345 C 4.288818 17.554886 6.59383 17.574905 8.043921 16.174341 L 9.307827 14.910435"/>
    </g>
</svg>
