<?xml version="1.0" encoding="UTF-8"?>
<!-- Generated by Pixelmator Pro 2.4.7 -->
<svg width="19" height="19" viewBox="0 0 19 19" xmlns="http://www.w3.org/2000/svg" xmlns:xlink="http://www.w3.org/1999/xlink">
    <g id="bigger">
        <path id="Traado" fill="none" stroke="#0433ff" stroke-width="2" stroke-linecap="round" stroke-linejoin="round" visibility="hidden" d="M 2 4 L 10.000001 12 L 18 4"/>
        <path id="Retngulo-arredondado" fill="none" stroke="#0433ff" stroke-width="2" stroke-linecap="round" stroke-linejoin="round" visibility="hidden" d="M 3.499999 2 C 1.567019 2 -0 3.56702 -0 5.5 C -0 5.5 -0 13.5 -0 13.5 C -0 15.43298 1.567019 17 3.499999 17 C 3.499999 17 16.5 17 16.5 17 C 18.43298 17 20 15.43298 20 13.5 C 20 13.5 20 5.5 20 5.5 C 20 3.56702 18.43298 2 16.5 2 Z"/>
    </g>
    <g id="normal">
        <path id="path1" fill="none" stroke="#0433ff" stroke-width="2" stroke-linecap="round" stroke-linejoin="round" visibility="hidden" d="M 2 4 L 9.5 11.5 L 17 4"/>
        <path id="path2" fill="none" stroke="#0433ff" stroke-width="2" stroke-linecap="round" stroke-linejoin="round" visibility="hidden" d="M 4 2 C 1.79088 2 0 3.79088 0 6 L 0 12.2 C 0 14.409121 1.79088 16.200001 4 16.200001 L 15 16.200001 C 17.20912 16.200001 19 14.409121 19 12.2 L 19 6 C 19 3.79088 17.20912 2 15 2 Z"/>
    </g>
    <g id="small">
        <path id="path3" fill="none" stroke="#0433ff" stroke-width="2" stroke-linecap="round" stroke-linejoin="round" d="M 2 5 L 9.5 12.5 L 17 5"/>
        <path id="path4" fill="none" stroke="#0433ff" stroke-width="2" stroke-linecap="round" stroke-linejoin="round" d="M 5 3 C 2.79088 3 1 4.79088 1 7 L 1 12 C 1 14.20912 2.79088 16 5 16 L 14 16 C 16.20912 16 18 14.20912 18 12 L 18 7 C 18 4.79088 16.20912 3 14 3 Z"/>
    </g>
</svg>
