<?xml version="1.0" encoding="UTF-8"?>
<svg width="21px" height="21px" viewBox="0 0 21 21" xmlns="http://www.w3.org/2000/svg" xmlns:xlink="http://www.w3.org/1999/xlink" version="1.1">
 <!-- Generated by Pixelmator Pro 2.2 -->
 <g id="New-Group">
  <path id="Traçado" d="M8.435 11.739 C9.153 12.699 10.252 13.299 11.447 13.385 12.643 13.471 13.816 13.033 14.663 12.185 L17.142 9.707 C18.707 8.086 18.685 5.51 17.091 3.917 15.498 2.324 12.922 2.301 11.301 3.867 L9.88 5.279" fill="none" stroke="#0433ff" stroke-width="2.065" stroke-opacity="1" stroke-linejoin="round" stroke-linecap="round"/>
  <path id="Traçado-1" d="M11.739 10.087 C11.021 9.127 9.922 8.527 8.727 8.441 7.531 8.356 6.358 8.793 5.51 9.641 L3.032 12.119 C1.467 13.74 1.489 16.316 3.082 17.909 4.676 19.503 7.252 19.525 8.873 17.96 L10.285 16.547" fill="none" stroke="#0433ff" stroke-width="2.065" stroke-opacity="1" stroke-linejoin="round" stroke-linecap="round"/>
 </g>
</svg>
