<?xml version="1.0" encoding="UTF-8"?>
<!-- Generated by Pixelmator Pro 2.4.7 -->
<svg width="40" height="40" viewBox="0 0 40 40" xmlns="http://www.w3.org/2000/svg" xmlns:xlink="http://www.w3.org/1999/xlink">
    <g id="New-Group">
        <path id="path1" fill="#ff0000" fill-rule="evenodd" stroke="none" visibility="hidden" d="M 20.443359 26.147852 L 19.90625 26.147852 C 19.849283 25.220114 19.662111 24.097076 19.344727 22.778711 L 18.709961 20.117579 C 18.327473 18.522518 18.13623 17.379137 18.13623 16.687403 C 18.13623 16.060772 18.323402 15.556219 18.697754 15.173731 C 19.072105 14.791243 19.560381 14.6 20.162598 14.6 C 20.748539 14.6 21.234779 14.793276 21.621338 15.179834 C 22.007896 15.566393 22.201172 16.056704 22.201172 16.650782 C 22.201172 17.269274 21.997723 18.424862 21.59082 20.117579 L 20.943848 22.778711 C 20.715982 23.722727 20.549154 24.845762 20.443359 26.147852 Z M 20.187012 27.893457 C 20.732262 27.893457 21.198158 28.086735 21.584717 28.473291 C 21.971275 28.859848 22.164551 29.329815 22.164551 29.883204 C 22.164551 30.428453 21.971275 30.894352 21.584717 31.280909 C 21.198158 31.667465 20.732262 31.860743 20.187012 31.860743 C 19.641762 31.860743 19.175865 31.667465 18.789307 31.280909 C 18.402748 30.894352 18.209473 30.428453 18.209473 29.883204 C 18.209473 29.337954 18.400715 28.870022 18.783203 28.479395 C 19.165691 28.088768 19.633623 27.893457 20.187012 27.893457 Z"/>
        <path id="Tringulo" fill="none" stroke="#ff0000" stroke-width="3" stroke-linecap="round" stroke-linejoin="round" visibility="hidden" d="M 20 3 L 2 36 L 38 36 Z"/>
    </g>
    <g id="New-Group-copiar">
        <path id="path2" fill="#ff0000" fill-rule="evenodd" stroke="none" d="M 20.443359 26.147852 L 19.90625 26.147852 C 19.849283 25.220114 19.662111 24.097076 19.344727 22.778711 L 18.709961 20.117579 C 18.327473 18.522518 18.13623 17.379137 18.13623 16.687403 C 18.13623 16.060772 18.323402 15.556219 18.697754 15.173731 C 19.072105 14.791243 19.560381 14.6 20.162598 14.6 C 20.748539 14.6 21.234779 14.793276 21.621338 15.179834 C 22.007896 15.566393 22.201172 16.056704 22.201172 16.650782 C 22.201172 17.269274 21.997723 18.424862 21.59082 20.117579 L 20.943848 22.778711 C 20.715982 23.722727 20.549154 24.845762 20.443359 26.147852 Z M 20.187012 27.893457 C 20.732262 27.893457 21.198158 28.086735 21.584717 28.473291 C 21.971275 28.859848 22.164551 29.329815 22.164551 29.883204 C 22.164551 30.428453 21.971275 30.894352 21.584717 31.280909 C 21.198158 31.667465 20.732262 31.860743 20.187012 31.860743 C 19.641762 31.860743 19.175865 31.667465 18.789307 31.280909 C 18.402748 30.894352 18.209473 30.428453 18.209473 29.883204 C 18.209473 29.337954 18.400715 28.870022 18.783203 28.479395 C 19.165691 28.088768 19.633623 27.893457 20.187012 27.893457 Z"/>
        <g id="Agrupar">
            <path id="path3" fill="#ff0000" fill-rule="evenodd" stroke="none" visibility="hidden" d="M 18.380001 17.792 C 18.380001 14.301315 18.436001 12.5 18.548 12.388 C 18.660002 12.275999 19.154663 12.219999 20.032001 12.219999 C 20.928005 12.219999 21.432001 12.275999 21.544001 12.388 C 21.656002 12.5 21.712002 14.301315 21.712002 17.792 C 21.712002 21.264017 21.628002 23.084 21.460001 23.252001 C 21.292 23.42 20.816006 23.504 20.032001 23.504 C 19.247997 23.504 18.772001 23.42 18.604 23.252001 C 18.454666 23.102667 18.380001 21.282684 18.380001 17.792 Z M 20.704 27.032 C 20.405333 26.882666 20.153336 26.807999 19.948002 26.807999 C 19.649332 26.807999 19.341335 26.966665 19.024 27.284 C 18.688 27.620003 18.52 27.974665 18.52 28.348 C 18.52 28.777336 18.669333 29.132 18.968 29.411999 C 19.266668 29.692001 19.612 29.832001 20.004002 29.832001 C 20.340002 29.832001 20.657333 29.710667 20.956001 29.468 C 21.236002 29.243999 21.413334 28.982668 21.488001 28.684 C 21.506668 28.627998 21.516001 28.544001 21.516001 28.431999 C 21.516001 28.170666 21.436668 27.904667 21.278002 27.633999 C 21.119333 27.363331 20.928001 27.162666 20.704 27.032 Z M 18.324001 24.68 C 18.828003 24.437332 19.387999 24.316 20.004002 24.316 C 21.236008 24.316 22.22533 24.717329 22.972 25.52 C 23.718672 26.32267 24.092001 27.274662 24.092001 28.375999 C 24.092001 29.477339 23.718672 30.401329 22.972 31.147999 C 22.169331 31.95067 21.198673 32.352001 20.060001 32.352001 C 19.275997 32.352001 18.543337 32.142002 17.862001 31.722 C 17.180664 31.301998 16.66267 30.71867 16.308001 29.972 C 16.102667 29.561333 16 28.98267 16 28.236 C 16 27.48933 16.102667 26.938667 16.308001 26.584 C 16.737337 25.743996 17.40933 25.109337 18.324001 24.68 Z"/>
            <text id="text1" visibility="hidden" xml:space="preserve" x="13" y="30" font-family="Digital Disk" font-size="28" font-weight="700" fill="#ff0000">!</text>
        </g>
        <g id="g1">
            <path id="path4" fill="#ff0000" fill-rule="evenodd" stroke="none" visibility="hidden" d="M 18.200001 17.469999 C 18.200001 13.72998 18.26 11.799999 18.379999 11.679998 C 18.5 11.559999 19.029995 11.5 19.969999 11.5 C 20.930004 11.5 21.469999 11.559999 21.59 11.679998 C 21.710001 11.799999 21.77 13.72998 21.77 17.469999 C 21.77 21.190018 21.68 23.139997 21.5 23.32 C 21.32 23.5 20.810003 23.589998 19.969999 23.589998 C 19.129995 23.589998 18.620001 23.5 18.440001 23.32 C 18.279999 23.159998 18.200001 21.210018 18.200001 17.469999 Z M 20.690001 27.369999 C 20.369999 27.209999 20.1 27.129999 19.879999 27.129999 C 19.559998 27.129999 19.230001 27.299997 18.889999 27.639999 C 18.529999 28 18.35 28.379997 18.35 28.779999 C 18.35 29.240002 18.509998 29.619999 18.83 29.919998 C 19.150002 30.220001 19.519999 30.369999 19.940001 30.369999 C 20.300001 30.369999 20.639997 30.240002 20.959999 29.98 C 21.260002 29.739998 21.449999 29.460001 21.530001 29.139999 C 21.549999 29.079998 21.559999 28.99 21.559999 28.869999 C 21.559999 28.589998 21.475 28.305 21.305 28.014999 C 21.134998 27.724998 20.93 27.51 20.690001 27.369999 Z M 18.139999 24.849998 C 18.680002 24.589998 19.279997 24.459999 19.940001 24.459999 C 21.260006 24.459999 22.319996 24.889996 23.120001 25.75 C 23.920004 26.610004 24.32 27.629993 24.32 28.809999 C 24.32 29.990005 23.920004 30.979996 23.120001 31.779999 C 22.259996 32.640003 21.220007 33.07 20 33.07 C 19.159996 33.07 18.375004 32.845001 17.645 32.395 C 16.914997 31.944996 16.360003 31.320004 15.98 30.52 C 15.759999 30.079998 15.65 29.460003 15.65 28.66 C 15.65 27.859995 15.759999 27.27 15.98 26.889999 C 16.440002 25.989994 17.159996 25.310001 18.139999 24.849998 Z"/>
            <text id="text2" visibility="hidden" xml:space="preserve" x="13" y="31" font-family="Digital Disk" font-size="30" font-weight="700" fill="#ff0000">!</text>
        </g>
        <path id="path5" fill="none" stroke="#ff0000" stroke-width="3" stroke-linecap="round" stroke-linejoin="round" d="M 20 3 L 2 36 L 38 36 Z"/>
    </g>
    <path id="Polgono" fill="none" stroke="#ff0000" stroke-width="3" stroke-linecap="round" stroke-linejoin="round" visibility="hidden" d="M 20 1 L 3.545518 10.5 L 3.545518 29.5 L 20 39 L 36.454483 29.5 L 36.454483 10.5 Z"/>
</svg>
