<?xml version="1.0" encoding="UTF-8"?>
<svg width="42px" height="42px" viewBox="0 0 42 42" xmlns="http://www.w3.org/2000/svg" xmlns:xlink="http://www.w3.org/1999/xlink" version="1.1">
 <!-- Generated by Pixelmator Pro 2.2 -->
 <g id="New-Group">
  <path id="!" d="M21.443 26.148 L20.906 26.148 C20.849 25.22 20.662 24.097 20.345 22.779 L19.71 20.118 C19.327 18.523 19.136 17.379 19.136 16.687 19.136 16.061 19.323 15.556 19.698 15.174 20.072 14.791 20.56 14.6 21.163 14.6 21.749 14.6 22.235 14.793 22.621 15.18 23.008 15.566 23.201 16.057 23.201 16.651 23.201 17.269 22.998 18.425 22.591 20.118 L21.944 22.779 C21.716 23.723 21.549 24.846 21.443 26.148 Z M21.187 27.893 C21.732 27.893 22.198 28.087 22.585 28.473 22.971 28.86 23.165 29.33 23.165 29.883 23.165 30.428 22.971 30.894 22.585 31.281 22.198 31.667 21.732 31.861 21.187 31.861 20.642 31.861 20.176 31.667 19.789 31.281 19.403 30.894 19.209 30.428 19.209 29.883 19.209 29.338 19.401 28.87 19.783 28.479 20.166 28.089 20.634 27.893 21.187 27.893 Z" fill="#ff0000" fill-opacity="1" stroke="none"/>
  <path id="Triângulo" d="M21 3 L3 36 39 36 Z" fill="none" stroke="#ff0000" stroke-width="3" stroke-opacity="1" stroke-linejoin="round" stroke-linecap="round"/>
 </g>
</svg>
