<?xml version="1.0" encoding="UTF-8"?>
<svg width="32px" height="32px" viewBox="0 0 32 32" xmlns="http://www.w3.org/2000/svg" xmlns:xlink="http://www.w3.org/1999/xlink" version="1.1">
 <!-- Generated by Pixelmator Pro 2.1.4 -->
 <path id="Traçado" d="M23 6 C23 8.209 19.866 10 16 10 12.134 10 9 8.209 9 6 9 3.791 12.134 2 16 2 19.866 2 23 3.791 23 6 Z" fill="none" stroke="#000000" stroke-width="2" stroke-opacity="1" stroke-linejoin="round" stroke-linecap="round"/>
 <path id="Traçado-1" d="M9 6 L9 11 C9 13.2 12.1 15 16 15 19.9 15 23 13.2 23 11 L23 6" fill="none" stroke="#000000" stroke-width="2" stroke-opacity="1" stroke-linejoin="round" stroke-linecap="round"/>
 <path id="Traçado-2" d="M2 12 L2 21 16 30 30 21 30 12" fill="none" stroke="#000000" stroke-width="2" stroke-opacity="1" stroke-linejoin="round" stroke-linecap="round"/>
 <path id="Traçado-3" d="M9 7.5 L2 12 16 21 30 12 23 7.5" fill="none" stroke="#000000" stroke-width="2" stroke-opacity="1" stroke-linejoin="round" stroke-linecap="round"/>
 <path id="Traçado-4" d="M16 21 L16 30" fill="none" stroke="#000000" stroke-width="2" stroke-opacity="1" stroke-linejoin="round" stroke-linecap="round"/>
</svg>
