<?xml version="1.0" encoding="UTF-8"?>
<svg width="21px" height="21px" viewBox="0 0 21 21" xmlns="http://www.w3.org/2000/svg" xmlns:xlink="http://www.w3.org/1999/xlink" version="1.1">
 <!-- Generated by Pixelmator Pro 2.2 -->
 <g id="New-Group">
  <path id="Traçado" d="M8.652 11.609 C9.294 12.467 10.278 13.005 11.348 13.081 12.417 13.158 13.467 12.766 14.225 12.008 L16.443 9.79 C17.843 8.34 17.823 6.035 16.398 4.61 14.972 3.184 12.667 3.164 11.217 4.565 L9.946 5.829" fill="none" stroke="#800080" stroke-width="1.848" stroke-opacity="1" stroke-linejoin="round" stroke-linecap="round"/>
  <path id="Traçado-1" d="M11.609 10.13 C10.966 9.272 9.983 8.734 8.913 8.658 7.844 8.581 6.794 8.973 6.036 9.731 L3.818 11.949 C2.418 13.399 2.438 15.704 3.863 17.129 5.289 18.555 7.594 18.575 9.044 17.174 L10.308 15.91" fill="none" stroke="#800080" stroke-width="1.848" stroke-opacity="1" stroke-linejoin="round" stroke-linecap="round"/>
 </g>
</svg>
