<?xml version="1.0" encoding="UTF-8"?>
<!-- Generated by Pixelmator Pro 2.4.7 -->
<svg width="92" height="34" viewBox="0 0 92 34" xmlns="http://www.w3.org/2000/svg" xmlns:xlink="http://www.w3.org/1999/xlink">
    <g id="Camada-de-fundo"/>
    <g id="New-Group">
        <path id="Traado-copiar-1" fill="#000000" stroke="none" visibility="hidden" d="M 21 15 L -1 15 C -1.4 15 -1.7 15.1 -2 15.200001 L -2 9 L 10 9 L 10 13 C 10 13.6 10.4 14 11 14 C 11.6 14 12 13.6 12 13 L 12 6 C 12 4.299999 10.700001 3 9 3 L -1 3 C -2.7 3 -4 4.299999 -4 6 L -4 18 L -4 28 C -4 29.700001 -2.7 31 -1 31 L 21 31 C 22.700001 31 24 29.700001 24 28 L 24 18 C 24 16.299999 22.700001 15 21 15 Z M 1 24 C 1 24.6 0.6 25 0 25 C -0.6 25 -1 24.6 -1 24 L -1 22 C -1 21.4 -0.6 21 0 21 C 0.6 21 1 21.4 1 22 Z M 18 29 L 4 29 L 4 17 L 18 17 Z"/>
        <path id="Traado-copiar" fill="#000000" stroke="none" visibility="hidden" d="M 13.9 6.1 C 16.799999 6.5 19 9 19 12 C 19 12.4 19.299999 12.799999 19.700001 12.9 C 19.799999 12.9 19.9 13 20 13 C 20.299999 13 20.6 12.9 20.799999 12.6 L 23.799999 8.6 C 24.1 8.200001 24 7.5 23.6 7.200001 C 23.200001 6.9 22.5 7 22.200001 7.4 L 20.6 9.5 C 19.700001 6.700001 17.200001 4.5 14.200001 4.1 C 13.6 4 13.1 4.4 13 4.9 C 13 5.5 13.299999 6 13.9 6.1 Z"/>
    </g>
    <path id="SEOpayperclickhandlink" fill="#000000" stroke="none" d="M 23.5 12 C 22.799999 11.9 22.1 12 21.5 12.4 C 21.1 11.700001 20.299999 11.200001 19.5 11 C 18.799999 10.9 18.1 11 17.5 11.4 C 17.1 10.700001 16.299999 10.200001 15.5 10 C 15 10 14.5 10 14 10.200001 L 14 6.1 C 14 4.6 12.9 3.299999 11.5 3 C 10.6 2.9 9.7 3.1 9.1 3.700001 C 8.4 4.299999 8 5.1 8 6 L 8 11.299999 C 7.4 11.1 6.8 11 6.1 11 C 5.5 11.1 4.8 11.299999 4.3 11.700001 C 4.1 11.9 4 12.200001 4 12.5 L 4 20.200001 C 4 25.9 8.5 30.700001 14 31 C 14.200001 31 14.299999 31 14.5 31 C 14.6 31 14.799999 31 14.9 31 C 21 30.799999 26 25.5 26 19.1 L 26 15.1 C 26 13.6 24.9 12.299999 23.5 12 Z M 24 19.1 C 24 24.4 19.9 28.799999 14.799999 29 C 14.5 29 14.299999 29 14 29 C 9.6 28.799999 6 24.799999 6 20.200001 L 6 13.1 C 6.1 13 6.2 13 6.3 13 C 6.7 13 7.1 13.1 7.5 13.4 C 7.8 13.700001 8 14.1 8 14.5 L 8 20 C 8 20.6 8.4 21 9 21 C 9.6 21 10 20.6 10 20 L 10 14.5 L 10 13 L 10 6 C 10 5.700001 10.1 5.4 10.4 5.200001 C 10.6 5 10.9 5 11.2 5 C 11.6 5.1 12 5.6 12 6.1 L 12 13 L 12 15 C 12 15.6 12.4 16 13 16 C 13.6 16 14 15.6 14 15 L 14 13 C 14 12.700001 14.1 12.4 14.4 12.200001 C 14.6 12 14.9 11.9 15.200001 12 C 15.700001 12.1 16 12.6 16 13.1 L 16 14 L 16 15 C 16 15.6 16.4 16 17 16 C 17.6 16 18 15.6 18 15 L 18 14 C 18 13.700001 18.1 13.4 18.4 13.200001 C 18.6 13 18.9 12.9 19.200001 13 C 19.700001 13.1 20 13.6 20 14.1 L 20 15 L 20 16 C 20 16.6 20.4 17 21 17 C 21.6 17 22 16.6 22 16 L 22 15 C 22 14.700001 22.1 14.4 22.4 14.200001 C 22.6 14 22.9 13.9 23.200001 14 C 23.200001 14 23.200001 14 23.200001 14 C 23.700001 14.1 24 14.6 24 15.1 L 24 19.1 Z"/>
    <path id="Seta" fill="#000000" stroke="none" d="M 53 17 L 42 26 L 42 20.959999 L 33 20.959999 L 33 13.040001 L 42 13.040001 L 42 8 Z"/>
    <g id="New-Group-1">
        <path id="Traado-copiar-4" fill="none" stroke="#000000" stroke-width="2" stroke-linecap="round" stroke-linejoin="round" d="M 68 11 L 81 11 L 81 23 L 68 23 Z"/>
        <path id="Traado-copiar-3" fill="none" stroke="#000000" stroke-width="2" stroke-linecap="round" stroke-linejoin="round" d="M 68 21 L 73 17 L 77 20 L 81 17"/>
        <path id="Traado-copiar-2" fill="none" stroke="#000000" stroke-width="2" stroke-linecap="round" stroke-linejoin="round" d="M 78 15 C 78 15.552 77.552002 16 77 16 C 76.447998 16 76 15.552 76 15 C 76 14.448 76.447998 14 77 14 C 77.552002 14 78 14.448 78 15 Z"/>
        <path id="Traado-copiar-1-1" fill="none" stroke="#000000" stroke-width="2" stroke-linecap="round" stroke-linejoin="round" d="M 59 1 L 67 1"/>
        <path id="path1" fill="none" stroke="#000000" stroke-width="2" stroke-linecap="round" stroke-linejoin="round" d="M 59 9 L 59 1"/>
        <g id="New-Group-copiar-7">
            <path id="Traado" fill="none" stroke="#000000" stroke-width="2" stroke-linecap="round" stroke-linejoin="round" d="M 59 1 L 67 1"/>
            <path id="path2" fill="none" stroke="#000000" stroke-width="2" stroke-linecap="round" stroke-linejoin="round" d="M 59 9 L 59 1"/>
        </g>
        <g id="New-Group-copiar-1">
            <path id="Traado-1" fill="none" stroke="#000000" stroke-width="2" stroke-linecap="round" stroke-linejoin="round" d="M 91 33 L 83 33"/>
            <path id="path3" fill="none" stroke="#000000" stroke-width="2" stroke-linecap="round" stroke-linejoin="round" d="M 91 25 L 91 33"/>
        </g>
        <g id="New-Group-copiar-2">
            <path id="Traado-2" fill="none" stroke="#000000" stroke-width="2" stroke-linecap="round" stroke-linejoin="round" d="M 59 33 L 67 33"/>
            <path id="path4" fill="none" stroke="#000000" stroke-width="2" stroke-linecap="round" stroke-linejoin="round" d="M 59 25 L 59 33"/>
        </g>
        <g id="New-Group-copiar-3">
            <path id="Traado-3" fill="none" stroke="#000000" stroke-width="2" stroke-linecap="round" stroke-linejoin="round" d="M 91 1 L 83 1"/>
            <path id="Traado-copiar-5" fill="none" stroke="#000000" stroke-width="2" stroke-linecap="round" stroke-linejoin="round" d="M 91 9 L 91 1"/>
        </g>
        <g id="New-Group-copiar">
            <path id="Traado-4" fill="none" stroke="#000000" stroke-width="2" stroke-linecap="round" stroke-linejoin="round" d="M 63 4 L 66 4"/>
            <path id="Traado-copiar-6" fill="none" stroke="#000000" stroke-width="2" stroke-linecap="round" stroke-linejoin="round" d="M 62 8 L 62 4"/>
            <path id="Traado-5" fill="none" stroke="#000000" stroke-width="2" stroke-linecap="round" stroke-linejoin="round" d="M 63 5 L 66 8"/>
        </g>
        <g id="New-Group-copiar-4">
            <path id="Traado-6" fill="none" stroke="#000000" stroke-width="2" stroke-linecap="round" stroke-linejoin="round" d="M 87 30 L 84 30"/>
            <path id="Traado-copiar-7" fill="none" stroke="#000000" stroke-width="2" stroke-linecap="round" stroke-linejoin="round" d="M 88 26 L 88 30"/>
            <path id="Traado-7" fill="none" stroke="#000000" stroke-width="2" stroke-linecap="round" stroke-linejoin="round" d="M 87 29 L 84 26"/>
        </g>
        <g id="New-Group-copiar-5">
            <path id="Traado-8" fill="none" stroke="#000000" stroke-width="2" stroke-linecap="round" stroke-linejoin="round" d="M 63 30 L 66 30"/>
            <path id="Traado-copiar-8" fill="none" stroke="#000000" stroke-width="2" stroke-linecap="round" stroke-linejoin="round" d="M 62 26 L 62 30"/>
            <path id="Traado-9" fill="none" stroke="#000000" stroke-width="2" stroke-linecap="round" stroke-linejoin="round" d="M 63 29 L 66 26"/>
        </g>
        <g id="New-Group-copiar-6">
            <path id="Traado-10" fill="none" stroke="#000000" stroke-width="2" stroke-linecap="round" stroke-linejoin="round" d="M 87 4 L 84 4"/>
            <path id="Traado-copiar-9" fill="none" stroke="#000000" stroke-width="2" stroke-linecap="round" stroke-linejoin="round" d="M 88 8 L 88 4"/>
            <path id="Traado-11" fill="none" stroke="#000000" stroke-width="2" stroke-linecap="round" stroke-linejoin="round" d="M 87 5 L 84 8"/>
        </g>
    </g>
</svg>
