<?xml version="1.0" encoding="UTF-8"?>
<!-- Generated by Pixelmator Pro 2.4.7 -->
<svg width="112" height="50" viewBox="0 0 112 50" xmlns="http://www.w3.org/2000/svg" xmlns:xlink="http://www.w3.org/1999/xlink">
    <g id="Camada-de-fundo"/>
    <g id="New-Group">
        <path id="Traado-copiar-1" fill="#000000" stroke="none" visibility="hidden" d="M 31 24 L 9 24 C 8.6 24 8.3 24.1 8 24.200001 L 8 18 L 20 18 L 20 22 C 20 22.6 20.4 23 21 23 C 21.6 23 22 22.6 22 22 L 22 15 C 22 13.299999 20.700001 12 19 12 L 9 12 C 7.3 12 6 13.299999 6 15 L 6 27 L 6 37 C 6 38.700001 7.3 40 9 40 L 31 40 C 32.700001 40 34 38.700001 34 37 L 34 27 C 34 25.299999 32.700001 24 31 24 Z M 11 33 C 11 33.599998 10.6 34 10 34 C 9.4 34 9 33.599998 9 33 L 9 31 C 9 30.4 9.4 30 10 30 C 10.6 30 11 30.4 11 31 Z M 28 38 L 14 38 L 14 26 L 28 26 Z"/>
        <path id="Traado-copiar" fill="#000000" stroke="none" visibility="hidden" d="M 23.9 15.100002 C 26.799999 15.5 29 18 29 21 C 29 21.4 29.299999 21.799999 29.700001 21.9 C 29.799999 21.9 29.9 22 30 22 C 30.299999 22 30.6 21.9 30.799999 21.6 L 33.799999 17.600002 C 34.099998 17.200001 34 16.5 33.599998 16.200001 C 33.200001 15.900002 32.5 16 32.200001 16.400002 L 30.6 18.5 C 29.700001 15.700001 27.200001 13.5 24.200001 13.100002 C 23.6 13 23.1 13.400002 23 13.900002 C 23 14.5 23.299999 15 23.9 15.100002 Z"/>
    </g>
    <g id="Agrupar">
        <path id="SEOpayperclickhandlink" fill="#000000" fill-rule="evenodd" stroke="none" d="M 21.544922 40 C 16.54257 39.714149 12.410271 35.342594 12.03125 30 L 13.945313 30 C 14.315151 34.25457 17.590574 37.811699 21.544922 38 C 21.831285 38 22.022232 38 22.308594 38 C 26.580742 37.824486 30.117865 34.414288 30.919922 30 L 31.091797 30 L 31.091797 28.099609 L 31.091797 24.099609 L 31.091797 21.154297 C 31.446011 21.304981 31.768517 21.528271 32.044922 21.804688 L 32.044922 25 L 33 25 L 33 28.099609 C 33 34.499588 28.227007 39.799999 22.404297 40 C 22.308842 40 22.118893 40 22.023438 40 C 21.832527 40 21.735832 40 21.544922 40 Z"/>
        <path id="SEOpayperclickhandlink-copiar-2" fill="#000000" fill-rule="evenodd" stroke="none" d="M 20 39.685547 C 15.450261 38.490753 12 34.189552 12 29.199219 L 12 26 L 14 26 L 14 29.199219 C 14 33.078247 16.559088 36.531845 20 37.638672 L 20 39.685547 Z M 17 30 C 16.4 30 16 29.6 16 29 L 16 26 L 16 23.5 L 16 20.300781 L 16 19 L 16 15 C 16 14.099998 16.399609 13.299217 17.099609 12.699219 C 17.69961 12.099216 18.6 11.900002 19.5 12 C 20.899996 12.299999 22 13.599609 22 15.099609 L 22 19 L 20 19 L 20 15.099609 C 20 14.599609 19.599218 14.099998 19.199219 14 C 18.899218 14 18.600391 13.999218 18.400391 14.199219 C 18.100391 14.39922 18 14.700001 18 15 L 18 22 L 18 23.5 L 18 29 C 18 29.6 17.6 30 17 30 Z"/>
        <path id="Retngulo" fill="#000000" fill-rule="evenodd" stroke="none" opacity="0.383315" visibility="hidden" d="M 33 25 L 34 25 L 34 24 L 33 24 Z"/>
        <g id="g1">
            <path id="Retngulo-arredondado-copiar" fill="#000000" fill-rule="evenodd" stroke="none" d="M 32.560547 26.384766 C 31.476631 23.251368 28.501968 21 25 21 L 22 21 C 21.308985 21 20.639477 21.089109 20 21.253906 L 20 19 L 26.5 19 C 30.089809 19 33 21.910191 33 25.5 L 33 26.384766 L 32.560547 26.384766 Z"/>
            <path id="Forma" fill="#000000" fill-rule="evenodd" stroke="none" visibility="hidden" d="M 18.5 19 C 14.91018 19 12 21.910179 12 25.5 L 12 25.5 C 12 29.089821 14.91018 32 18.5 32 L 27.5 32 C 31.089821 32 34 29.089821 34 25.5 L 34 25.5 C 34 21.910179 31.089821 19 27.5 19 Z"/>
            <path id="Retngulo-arredondado-copiar-2" fill="#000000" fill-rule="evenodd" stroke="none" d="M 12.021484 26 C 12.23873 23.150913 14.291387 20.814272 17 20.173828 L 17 22.257813 C 15.404106 22.822584 14.221352 24.261295 14.029297 26 L 12.021484 26 Z"/>
            <path id="path1" fill="#000000" fill-rule="evenodd" stroke="none" d="M 20 20 L 22 20 L 22 17 L 20 17 Z"/>
        </g>
        <path id="path2" fill="#000000" fill-rule="evenodd" stroke="none" visibility="hidden" d="M 32 27 L 34 27 L 34 21 L 32 21 Z"/>
        <path id="path3" fill="#000000" fill-rule="evenodd" stroke="none" visibility="hidden" d="M 20 22 L 33 22 L 33 20 L 20 20 Z"/>
        <path id="SEOpayperclickhandlink-copiar" fill="#000000" stroke="none" visibility="hidden" d="M 31.5 21 C 30.799999 20.9 30.1 21 29.5 21.4 C 29.1 20.700001 28.299999 20.200001 27.5 20 C 26.799999 19.9 26.1 20 25.5 20.4 C 25.1 19.700001 24.299999 19.200001 23.5 19 C 23 19 22.5 19 22 19.200001 L 22 15.099998 C 22 13.599998 20.9 12.299999 19.5 12 C 18.6 11.900002 17.700001 12.099998 17.1 12.700001 C 16.4 13.299999 16 14.099998 16 15 L 16 20.299999 C 15.4 20.1 14.8 20 14.1 20 C 13.5 20.1 12.8 20.299999 12.3 20.700001 C 12.1 20.9 12 21.200001 12 21.5 L 12 29.200001 C 12 34.900002 16.5 39.700001 22 40 C 22.200001 40 22.299999 40 22.5 40 C 22.6 40 22.799999 40 22.9 40 C 29 39.799999 34 34.5 34 28.1 L 34 24.1 C 34 22.6 32.900002 21.299999 31.5 21 Z M 32 28.1 C 32 33.400002 27.9 37.799999 22.799999 38 C 22.5 38 22.299999 38 22 38 C 17.6 37.799999 14 33.799999 14 29.200001 L 14 22.1 C 14.1 22 14.2 22 14.3 22 C 14.7 22 15.1 22.1 15.5 22.4 C 15.8 22.700001 16 23.1 16 23.5 L 16 29 C 16 29.6 16.4 30 17 30 C 17.6 30 18 29.6 18 29 L 18 23.5 L 18 22 L 18 15 C 18 14.700001 18.1 14.400002 18.4 14.200001 C 18.6 14 18.9 14 19.200001 14 C 19.6 14.099998 20 14.599998 20 15.099998 L 20 22 L 20 24 C 20 24.6 20.4 25 21 25 C 21.6 25 22 24.6 22 24 L 22 22 C 22 21.700001 22.1 21.4 22.4 21.200001 C 22.6 21 22.9 20.9 23.200001 21 C 23.700001 21.1 24 21.6 24 22.1 L 24 23 L 24 24 C 24 24.6 24.4 25 25 25 C 25.6 25 26 24.6 26 24 L 26 23 C 26 22.700001 26.1 22.4 26.4 22.200001 C 26.6 22 26.9 21.9 27.200001 22 C 27.700001 22.1 28 22.6 28 23.1 L 28 24 L 28 25 C 28 25.6 28.4 26 29 26 C 29.6 26 30 25.6 30 25 L 30 24 C 30 23.700001 30.1 23.4 30.4 23.200001 C 30.6 23 30.9 22.9 31.200001 23 C 31.200001 23 31.200001 23 31.200001 23 C 31.700001 23.1 32 23.6 32 24.1 L 32 28.1 Z"/>
    </g>
    <path id="Seta" fill="#000000" stroke="none" visibility="hidden" d="M 63 26 L 52 35 L 52 29.959999 L 43 29.959999 L 43 22.040001 L 52 22.040001 L 52 17 Z"/>
    <g id="-2">
        <path id="Traado" fill="#000000" fill-rule="evenodd" stroke="none" d="M 54.691406 41.132813 L 54.691406 41.128906 L 54.695313 41.128906 L 54.691406 41.132813 Z M 40.208984 30.128906 L 40.208984 25.474609 L 42.279297 25.474609 L 42.279297 30.128906 L 40.208984 30.128906 Z M 44.484375 30.128906 L 44.484375 25.474609 L 47.794922 25.474609 L 47.794922 30.128906 L 44.484375 30.128906 Z M 50.001953 30.128906 L 50.001953 25.474609 L 54.691406 25.474609 L 54.691406 19.132813 L 64.205078 30.128906 L 50.001953 30.128906 Z"/>
    </g>
    <g id="New-Group-1">
        <path id="Traado-copiar-4" fill="none" stroke="#000000" stroke-width="2" stroke-linecap="round" stroke-linejoin="round" d="M 80 20 L 93 20 L 93 32 L 80 32 Z"/>
        <path id="Traado-copiar-3" fill="none" stroke="#000000" stroke-width="2" stroke-linecap="round" stroke-linejoin="round" d="M 80 30 L 85 26 L 89 29 L 93 26"/>
        <path id="Traado-copiar-2" fill="none" stroke="#000000" stroke-width="2" stroke-linecap="round" stroke-linejoin="round" d="M 90 24 C 90 24.552 89.552002 25 89 25 C 88.447998 25 88 24.552 88 24 C 88 23.448 88.447998 23 89 23 C 89.552002 23 90 23.448 90 24 Z"/>
        <g id="g2">
            <g id="g3">
                <g id="New-Group-copiar-7">
                    <path id="path4" fill="none" stroke="#000000" stroke-width="2" stroke-linecap="round" stroke-linejoin="round" visibility="hidden" d="M 71 10 L 79 10"/>
                    <path id="path5" fill="none" stroke="#000000" stroke-width="2" stroke-linecap="round" stroke-linejoin="round" visibility="hidden" d="M 71 18 L 71 10"/>
                </g>
                <g id="New-Group-copiar-1">
                    <path id="Traado-1" fill="none" stroke="#000000" stroke-width="2" stroke-linecap="round" stroke-linejoin="round" visibility="hidden" d="M 103 42 L 95 42"/>
                    <path id="path6" fill="none" stroke="#000000" stroke-width="2" stroke-linecap="round" stroke-linejoin="round" visibility="hidden" d="M 103 34 L 103 42"/>
                </g>
                <g id="New-Group-copiar-2">
                    <path id="Traado-2" fill="none" stroke="#000000" stroke-width="2" stroke-linecap="round" stroke-linejoin="round" visibility="hidden" d="M 71 42 L 79 42"/>
                    <path id="path7" fill="none" stroke="#000000" stroke-width="2" stroke-linecap="round" stroke-linejoin="round" visibility="hidden" d="M 71 34 L 71 42"/>
                </g>
                <g id="New-Group-copiar-3">
                    <path id="Traado-3" fill="none" stroke="#000000" stroke-width="2" stroke-linecap="round" stroke-linejoin="round" visibility="hidden" d="M 103 10 L 95 10"/>
                    <path id="Traado-copiar-5" fill="none" stroke="#000000" stroke-width="2" stroke-linecap="round" stroke-linejoin="round" visibility="hidden" d="M 103 18 L 103 10"/>
                </g>
            </g>
            <g id="g4">
                <g id="Agrupar-copiar-3">
                    <linearGradient id="linearGradient1" x1="88" y1="42" x2="104" y2="42" gradientUnits="userSpaceOnUse">
                        <stop offset="0" stop-color="#000000" stop-opacity="0"/>
                        <stop offset="1" stop-color="#000000" stop-opacity="1"/>
                    </linearGradient>
                    <path id="path8" fill="url(#linearGradient1)" fill-rule="evenodd" stroke="none" d="M 88 43 L 104 43 L 104 41 L 88 41 Z"/>
                    <linearGradient id="linearGradient2" x1="70" y1="42" x2="86" y2="42" gradientUnits="userSpaceOnUse">
                        <stop offset="0" stop-color="#000000" stop-opacity="1"/>
                        <stop offset="1" stop-color="#000000" stop-opacity="0"/>
                    </linearGradient>
                    <path id="Retngulo-copiar" fill="url(#linearGradient2)" fill-rule="evenodd" stroke="none" d="M 70 43 L 86 43 L 86 41 L 70 41 Z"/>
                </g>
                <g id="Agrupar-copiar-4">
                    <linearGradient id="linearGradient3" x1="95" y1="17" x2="111" y2="17" gradientUnits="userSpaceOnUse" gradientTransform="matrix(0 -1 1 0 86 120)">
                        <stop offset="0" stop-color="#000000" stop-opacity="0"/>
                        <stop offset="1" stop-color="#000000" stop-opacity="1"/>
                    </linearGradient>
                    <path id="path9" fill="url(#linearGradient3)" fill-rule="evenodd" stroke="none" d="M 104 25 L 104 9 L 102 9 L 102 25 Z"/>
                    <linearGradient id="linearGradient4" x1="95" y1="35" x2="111" y2="35" gradientUnits="userSpaceOnUse" gradientTransform="matrix(0 -1 1 0 68 138)">
                        <stop offset="0" stop-color="#000000" stop-opacity="1"/>
                        <stop offset="1" stop-color="#000000" stop-opacity="0"/>
                    </linearGradient>
                    <path id="path10" fill="url(#linearGradient4)" fill-rule="evenodd" stroke="none" d="M 104 43 L 104 27 L 102 27 L 102 43 Z"/>
                </g>
                <g id="Agrupar-copiar-6">
                    <linearGradient id="linearGradient5" x1="63" y1="17" x2="79" y2="17" gradientUnits="userSpaceOnUse" gradientTransform="matrix(0 -1 1 0 54 88)">
                        <stop offset="0" stop-color="#000000" stop-opacity="0"/>
                        <stop offset="1" stop-color="#000000" stop-opacity="1"/>
                    </linearGradient>
                    <path id="path11" fill="url(#linearGradient5)" fill-rule="evenodd" stroke="none" d="M 72 25 L 72 9 L 70 9 L 70 25 Z"/>
                    <linearGradient id="linearGradient6" x1="63" y1="35" x2="79" y2="35" gradientUnits="userSpaceOnUse" gradientTransform="matrix(0 -1 1 0 36 106)">
                        <stop offset="0" stop-color="#000000" stop-opacity="1"/>
                        <stop offset="1" stop-color="#000000" stop-opacity="0"/>
                    </linearGradient>
                    <path id="path12" fill="url(#linearGradient6)" fill-rule="evenodd" stroke="none" d="M 72 43 L 72 27 L 70 27 L 70 43 Z"/>
                </g>
                <g id="Agrupar-copiar-5">
                    <linearGradient id="linearGradient7" x1="88" y1="10" x2="104" y2="10" gradientUnits="userSpaceOnUse">
                        <stop offset="0" stop-color="#000000" stop-opacity="0"/>
                        <stop offset="1" stop-color="#000000" stop-opacity="1"/>
                    </linearGradient>
                    <path id="path13" fill="url(#linearGradient7)" fill-rule="evenodd" stroke="none" d="M 88 11 L 104 11 L 104 9 L 88 9 Z"/>
                    <linearGradient id="linearGradient8" x1="70" y1="10" x2="86" y2="10" gradientUnits="userSpaceOnUse">
                        <stop offset="0" stop-color="#000000" stop-opacity="1"/>
                        <stop offset="1" stop-color="#000000" stop-opacity="0"/>
                    </linearGradient>
                    <path id="path14" fill="url(#linearGradient8)" fill-rule="evenodd" stroke="none" d="M 70 11 L 86 11 L 86 9 L 70 9 Z"/>
                </g>
            </g>
        </g>
        <g id="New-Group-copiar">
            <path id="Traado-4" fill="none" stroke="#000000" stroke-width="2" stroke-linecap="round" stroke-linejoin="round" d="M 75 13 L 78 13"/>
            <path id="Traado-copiar-6" fill="none" stroke="#000000" stroke-width="2" stroke-linecap="round" stroke-linejoin="round" d="M 74 17 L 74 13"/>
            <path id="Traado-5" fill="none" stroke="#000000" stroke-width="2" stroke-linecap="round" stroke-linejoin="round" d="M 75 14 L 78 17"/>
        </g>
        <g id="New-Group-copiar-4">
            <path id="Traado-6" fill="none" stroke="#000000" stroke-width="2" stroke-linecap="round" stroke-linejoin="round" d="M 99 39 L 96 39"/>
            <path id="Traado-copiar-7" fill="none" stroke="#000000" stroke-width="2" stroke-linecap="round" stroke-linejoin="round" d="M 100 35 L 100 39"/>
            <path id="Traado-7" fill="none" stroke="#000000" stroke-width="2" stroke-linecap="round" stroke-linejoin="round" d="M 99 38 L 96 35"/>
        </g>
        <g id="New-Group-copiar-5">
            <path id="Traado-8" fill="none" stroke="#000000" stroke-width="2" stroke-linecap="round" stroke-linejoin="round" d="M 75 39 L 78 39"/>
            <path id="Traado-copiar-8" fill="none" stroke="#000000" stroke-width="2" stroke-linecap="round" stroke-linejoin="round" d="M 74 35 L 74 39"/>
            <path id="Traado-9" fill="none" stroke="#000000" stroke-width="2" stroke-linecap="round" stroke-linejoin="round" d="M 75 38 L 78 35"/>
        </g>
        <g id="New-Group-copiar-6">
            <path id="Traado-10" fill="none" stroke="#000000" stroke-width="2" stroke-linecap="round" stroke-linejoin="round" d="M 99 13 L 96 13"/>
            <path id="Traado-copiar-9" fill="none" stroke="#000000" stroke-width="2" stroke-linecap="round" stroke-linejoin="round" d="M 100 17 L 100 13"/>
            <path id="Traado-11" fill="none" stroke="#000000" stroke-width="2" stroke-linecap="round" stroke-linejoin="round" d="M 99 14 L 96 17"/>
        </g>
    </g>
</svg>
