<?xml version="1.0" encoding="UTF-8"?>
<svg width="32px" height="32px" viewBox="0 0 32 32" xmlns="http://www.w3.org/2000/svg" xmlns:xlink="http://www.w3.org/1999/xlink" version="1.1">
 <!-- Generated by Pixelmator Pro 2.2 -->
 <path id="Traçado" d="M23 0 L9 0 C4 0 0 4 0 9 L0 23 C0 28 4 32 9 32 L16 32 16 20 12 20 C11.4 20 11 19.6 11 19 L11 16 C11 15.4 11.4 15 12 15 L16 15 16 12 C16 8.7 17.7 6 21 6 L25 6 C25.6 6 26 6.4 26 7 L26 10 C26 10.6 25.6 11 25 11 L21.2 11 C21.1 11 21 11.1 21 11.2 L21 15 26 15 C26.3 15 26.6 15.2 26.8 15.4 27 15.6 27 16 26.9 16.3 L24.9 19.3 C24.8 19.8 24.4 20 24 20 L21 20 21 32 23 32 C28 32 32 28 32 23 L32 9 C32 4 28 0 23 0 Z" fill="#ffffff" fill-opacity="1" stroke="none"/>
</svg>
