<?xml version="1.0" encoding="UTF-8"?>
<!-- Generated by Pixelmator Pro 2.4.7 -->
<svg width="44" height="44" viewBox="0 0 44 44" xmlns="http://www.w3.org/2000/svg" xmlns:xlink="http://www.w3.org/1999/xlink">
    <path id="Retngulo-arredondado" fill="#000000" fill-rule="evenodd" stroke="#000000" stroke-width="3" stroke-linecap="round" d="M 38.21875 1.90625 L 40.359375 3.203125 L 41.828125 5.1875 L 42.40625 7.015625 L 42.484375 36.171875 L 41.515625 39.34375 L 39.3125 41.546875 L 36.953125 42.40625 L 8.171875 42.5 L 5.703125 42.0625 L 4.15625 41.21875 L 2.40625 39.296875 L 1.734375 37.71875 L 1.5 8.15625 L 1.90625 5.75 L 3.203125 3.625 L 5.140625 2.1875 L 8.1875 1.5 L 35.84375 1.5 Z"/>
    <mask id="mask1" maskUnits="userSpaceOnUse" maskContentUnits="userSpaceOnUse" mask-type="alpha">
        <path id="path1" fill="#000000" fill-rule="evenodd" stroke="#000000" stroke-width="3" stroke-linecap="round" d="M 38.21875 1.90625 L 40.359375 3.203125 L 41.828125 5.1875 L 42.40625 7.015625 L 42.484375 36.171875 L 41.515625 39.34375 L 39.3125 41.546875 L 36.953125 42.40625 L 8.171875 42.5 L 5.703125 42.0625 L 4.15625 41.21875 L 2.40625 39.296875 L 1.734375 37.71875 L 1.5 8.15625 L 1.90625 5.75 L 3.203125 3.625 L 5.140625 2.1875 L 8.1875 1.5 L 35.84375 1.5 Z"/>
    </mask>
    <g id="Camada-sem-nome" mask="url(#mask1)">
        <linearGradient id="linearGradient1" x1="22" y1="22" x2="22" y2="0" gradientUnits="userSpaceOnUse">
            <stop offset="0" stop-color="#ffffff" stop-opacity="0.5"/>
            <stop offset="1" stop-color="#ffffff" stop-opacity="0"/>
        </linearGradient>
        <path id="path2" fill="url(#linearGradient1)" fill-rule="evenodd" stroke="none" d="M 0 22 L 44 22 L 44 0 L 0 0 Z"/>
    </g>
    <g id="New-Group-1-copiar">
        <path id="Traado-copiar-4" fill="none" stroke="#ffffff" stroke-width="2" stroke-linecap="round" stroke-linejoin="round" d="M 15 16 L 28 16 L 28 28 L 15 28 Z"/>
        <path id="Traado-copiar-3" fill="none" stroke="#ffffff" stroke-width="2" stroke-linecap="round" stroke-linejoin="round" d="M 15 26 L 20 22 L 24 25 L 28 22"/>
        <path id="Traado-copiar-2" fill="none" stroke="#ffffff" stroke-width="2" stroke-linecap="round" stroke-linejoin="round" d="M 25 20 C 25 20.552 24.552002 21 24 21 C 23.447998 21 23 20.552 23 20 C 23 19.448 23.447998 19 24 19 C 24.552002 19 25 19.448 25 20 Z"/>
        <path id="Traado-copiar-1-1" fill="none" stroke="#ffffff" stroke-width="2" stroke-linecap="round" stroke-linejoin="round" d="M 6 6 L 14 6"/>
        <path id="Traado-copiar-1" fill="none" stroke="#ffffff" stroke-width="2" stroke-linecap="round" stroke-linejoin="round" d="M 6 14 L 6 6"/>
        <g id="New-Group-copiar-7">
            <path id="Traado" fill="none" stroke="#ffffff" stroke-width="2" stroke-linecap="round" stroke-linejoin="round" d="M 6 6 L 14 6"/>
            <path id="path3" fill="none" stroke="#ffffff" stroke-width="2" stroke-linecap="round" stroke-linejoin="round" d="M 6 14 L 6 6"/>
        </g>
        <g id="New-Group-copiar-1">
            <path id="Traado-1" fill="none" stroke="#ffffff" stroke-width="2" stroke-linecap="round" stroke-linejoin="round" d="M 38 38 L 30 38"/>
            <path id="path4" fill="none" stroke="#ffffff" stroke-width="2" stroke-linecap="round" stroke-linejoin="round" d="M 38 30 L 38 38"/>
        </g>
        <g id="New-Group-copiar-2">
            <path id="Traado-2" fill="none" stroke="#ffffff" stroke-width="2" stroke-linecap="round" stroke-linejoin="round" d="M 6 38 L 14 38"/>
            <path id="path5" fill="none" stroke="#ffffff" stroke-width="2" stroke-linecap="round" stroke-linejoin="round" d="M 6 30 L 6 38"/>
        </g>
        <g id="New-Group-copiar-3">
            <path id="Traado-3" fill="none" stroke="#ffffff" stroke-width="2" stroke-linecap="round" stroke-linejoin="round" d="M 38 6 L 30 6"/>
            <path id="Traado-copiar-5" fill="none" stroke="#ffffff" stroke-width="2" stroke-linecap="round" stroke-linejoin="round" d="M 38 14 L 38 6"/>
        </g>
        <g id="New-Group-copiar">
            <path id="Traado-4" fill="none" stroke="#ffffff" stroke-width="2" stroke-linecap="round" stroke-linejoin="round" d="M 10 9 L 13 9"/>
            <path id="Traado-copiar-6" fill="none" stroke="#ffffff" stroke-width="2" stroke-linecap="round" stroke-linejoin="round" d="M 9 13 L 9 9"/>
            <path id="Traado-5" fill="none" stroke="#ffffff" stroke-width="2" stroke-linecap="round" stroke-linejoin="round" d="M 10 10 L 13 13"/>
        </g>
        <g id="New-Group-copiar-4">
            <path id="Traado-6" fill="none" stroke="#ffffff" stroke-width="2" stroke-linecap="round" stroke-linejoin="round" d="M 34 35 L 31 35"/>
            <path id="Traado-copiar-7" fill="none" stroke="#ffffff" stroke-width="2" stroke-linecap="round" stroke-linejoin="round" d="M 35 31 L 35 35"/>
            <path id="Traado-7" fill="none" stroke="#ffffff" stroke-width="2" stroke-linecap="round" stroke-linejoin="round" d="M 34 34 L 31 31"/>
        </g>
        <g id="New-Group-copiar-5">
            <path id="Traado-8" fill="none" stroke="#ffffff" stroke-width="2" stroke-linecap="round" stroke-linejoin="round" d="M 10 35 L 13 35"/>
            <path id="Traado-copiar-8" fill="none" stroke="#ffffff" stroke-width="2" stroke-linecap="round" stroke-linejoin="round" d="M 9 31 L 9 35"/>
            <path id="Traado-9" fill="none" stroke="#ffffff" stroke-width="2" stroke-linecap="round" stroke-linejoin="round" d="M 10 34 L 13 31"/>
        </g>
        <g id="New-Group-copiar-6">
            <path id="Traado-10" fill="none" stroke="#ffffff" stroke-width="2" stroke-linecap="round" stroke-linejoin="round" d="M 34 9 L 31 9"/>
            <path id="Traado-copiar-9" fill="none" stroke="#ffffff" stroke-width="2" stroke-linecap="round" stroke-linejoin="round" d="M 35 13 L 35 9"/>
            <path id="Traado-11" fill="none" stroke="#ffffff" stroke-width="2" stroke-linecap="round" stroke-linejoin="round" d="M 34 10 L 31 13"/>
        </g>
    </g>
</svg>
