<?xml version="1.0" encoding="UTF-8"?>
<svg width="144px" height="144px" viewBox="0 0 144 144" xmlns="http://www.w3.org/2000/svg" xmlns:xlink="http://www.w3.org/1999/xlink" version="1.1">
 <!-- Generated by Pixelmator Pro 2.2 -->
 <g id="New-Group-copiar">
  <path id="Retângulo-arredondado" d="M30.778 55 C24.274 55 19 60.117 19 66.429 L19 83.571 C19 89.883 24.274 95 30.778 95 L113.222 95 C119.727 95 125 89.883 125 83.571 L125 66.429 C125 60.117 119.727 55 113.222 55 Z" fill="#2ab6f2" fill-opacity="1" stroke="#2ab6f2" stroke-width="6" stroke-opacity="1" stroke-linejoin="round" stroke-linecap="round"/>
  <path id="Retângulo-arredondado-copiar" d="M30 54 C23.373 54 18 59.373 18 66 L18 84 C18 90.627 23.373 96 30 96 L114 96 C120.627 96 126 90.627 126 84 L126 66 C126 59.373 120.627 54 114 54 Z" fill="#ffffff" fill-opacity="0.497" stroke="#ffffff" stroke-width="6" stroke-opacity="1" stroke-linejoin="round" stroke-linecap="round"/>
  <path id="Retângulo-copiar" d="M21 93 L123 93 123 75 21 75 Z" fill="#ffffff" fill-opacity="0.151" stroke="none"/>
  <path id="Retângulo" d="M21 75 L123 75 123 57 21 57 Z" fill="#ffffff" fill-opacity="0.653" stroke="none"/>
  <path id="Retângulo-arredondado-copiar-1" d="M32.333 57 C26.074 57 21 61.605 21 67.286 L21 82.714 C21 88.395 26.074 93 32.333 93 L111.667 93 C117.925 93 123 88.395 123 82.714 L123 67.286 C123 61.605 117.925 57 111.667 57 Z" fill="none" stroke="#2ab6f2" stroke-width="1" stroke-opacity="0.304" stroke-linejoin="round" stroke-linecap="round"/>
 </g>
</svg>
