<?xml version="1.0" encoding="UTF-8"?>
<svg width="22px" height="22px" viewBox="0 0 22 22" xmlns="http://www.w3.org/2000/svg" xmlns:xlink="http://www.w3.org/1999/xlink" version="1.1">
 <!-- Generated by Pixelmator Pro 2.2 -->
 <path id="Retângulo" d="M5 17 L17 17 17 5 5 5 Z" fill="#ffffff" fill-opacity="1" stroke="none"/>
 <g id="New-Group">
  <path id="Retângulo-copiar-1" d="M18 16 L21 16 21 6 18 6 Z" fill="#ffffff" fill-opacity="1" stroke="none"/>
  <path id="Retângulo-copiar" d="M6 21 L16 21 16 18 6 18 Z" fill="#ffffff" fill-opacity="1" stroke="none"/>
  <path id="Retângulo-copiar-5" d="M1 16 L4 16 4 6 1 6 Z" fill="#ffffff" fill-opacity="1" stroke="none"/>
  <path id="Retângulo-copiar-2" d="M6 4 L16 4 16 1 6 1 Z" fill="#ffffff" fill-opacity="1" stroke="none"/>
  <path id="Retângulo-copiar-3" d="M17 22 L22 22 22 17 17 17 Z" fill="#ffffff" fill-opacity="1" stroke="none"/>
  <path id="Retângulo-copiar-6" d="M0 22 L5 22 5 17 0 17 Z" fill="#ffffff" fill-opacity="1" stroke="none"/>
  <path id="Retângulo-copiar-4" d="M17 5 L22 5 22 0 17 0 Z" fill="#ffffff" fill-opacity="1" stroke="none"/>
  <path id="Retângulo-copiar-7" d="M0 5 L5 5 5 0 0 0 Z" fill="#ffffff" fill-opacity="1" stroke="none"/>
 </g>
</svg>
