<?xml version="1.0" encoding="UTF-8"?>
<svg width="22px" height="22px" viewBox="0 0 22 22" xmlns="http://www.w3.org/2000/svg" xmlns:xlink="http://www.w3.org/1999/xlink" version="1.1">
 <!-- Generated by Pixelmator Pro 2.2 -->
 <path id="Retângulo" d="M6 16 L16 16 16 6 6 6 Z" fill="#ffffff" fill-opacity="1" stroke="none"/>
 <g id="New-Group">
  <path id="Retângulo-copiar-1" d="M18 15 L21 15 21 7 18 7 Z" fill="#ffffff" fill-opacity="1" stroke="none"/>
  <path id="Retângulo-copiar" d="M7 21 L15 21 15 18 7 18 Z" fill="#ffffff" fill-opacity="1" stroke="none"/>
  <path id="Retângulo-copiar-5" d="M1 15 L4 15 4 7 1 7 Z" fill="#ffffff" fill-opacity="1" stroke="none"/>
  <path id="Retângulo-copiar-2" d="M7 4 L15 4 15 1 7 1 Z" fill="#ffffff" fill-opacity="1" stroke="none"/>
  <path id="Retângulo-copiar-3" d="M17 22 L22 22 22 17 17 17 Z" fill="#ffffff" fill-opacity="1" stroke="none"/>
  <path id="Retângulo-copiar-6" d="M0 22 L5 22 5 17 0 17 Z" fill="#ffffff" fill-opacity="1" stroke="none"/>
  <path id="Retângulo-copiar-4" d="M17 5 L22 5 22 0 17 0 Z" fill="#ffffff" fill-opacity="1" stroke="none"/>
  <path id="Retângulo-copiar-7" d="M0 5 L5 5 5 0 0 0 Z" fill="#ffffff" fill-opacity="1" stroke="none"/>
 </g>
</svg>
