<?xml version="1.0" encoding="UTF-8"?>
<svg width="22px" height="22px" viewBox="0 0 22 22" xmlns="http://www.w3.org/2000/svg" xmlns:xlink="http://www.w3.org/1999/xlink" version="1.1">
 <!-- Generated by Pixelmator Pro 2.2 -->
 <g id="New-Group">
  <path id="Retângulo" d="M5 17 L17 17 17 5 5 5 Z" fill="#ffffff" fill-opacity="1" stroke="none"/>
  <g id="New-Group-1">
   <path id="Retângulo-copiar-1" d="M18 16 L21 16 21 6 18 6 Z" fill="#ffffff" fill-opacity="1" stroke="none"/>
   <path id="Retângulo-copiar" d="M6 21 L16 21 16 18 6 18 Z" fill="#ffffff" fill-opacity="1" stroke="none"/>
   <path id="Retângulo-copiar-5" d="M1 16 L4 16 4 6 1 6 Z" fill="#ffffff" fill-opacity="1" stroke="none"/>
   <path id="Retângulo-copiar-2" d="M6 4 L16 4 16 1 6 1 Z" fill="#ffffff" fill-opacity="1" stroke="none"/>
  </g>
  <path id="Elipse" d="M22 19.5 C22 18.119 20.881 17 19.5 17 18.119 17 17 18.119 17 19.5 17 20.881 18.119 22 19.5 22 20.881 22 22 20.881 22 19.5 Z" fill="#ffffff" fill-opacity="1" stroke="none"/>
  <path id="Elipse-copiar" d="M5 19.5 C5 18.119 3.881 17 2.5 17 1.119 17 0 18.119 0 19.5 0 20.881 1.119 22 2.5 22 3.881 22 5 20.881 5 19.5 Z" fill="#ffffff" fill-opacity="1" stroke="none"/>
  <path id="Elipse-copiar-2" d="M22 2.5 C22 1.119 20.881 0 19.5 0 18.119 0 17 1.119 17 2.5 17 3.881 18.119 5 19.5 5 20.881 5 22 3.881 22 2.5 Z" fill="#ffffff" fill-opacity="1" stroke="none"/>
  <path id="Elipse-copiar-1" d="M5 2.5 C5 1.119 3.881 0 2.5 0 1.119 0 0 1.119 0 2.5 0 3.881 1.119 5 2.5 5 3.881 5 5 3.881 5 2.5 Z" fill="#ffffff" fill-opacity="1" stroke="none"/>
 </g>
</svg>
