<?xml version="1.0" encoding="UTF-8"?>
<svg width="21px" height="21px" viewBox="0 0 21 21" xmlns="http://www.w3.org/2000/svg" xmlns:xlink="http://www.w3.org/1999/xlink" version="1.1">
 <!-- Generated by Pixelmator Pro 2.2 -->
 <g id="New-Group-copiar">
  <path id="Traçado-copiar" d="M2.1 9.636 C2.1 9.636 9.833 17.409 18.7 9.636" fill="none" stroke="#0433ff" stroke-width="1.787" stroke-opacity="1" stroke-linejoin="round" stroke-linecap="round"/>
  <path id="Elipse" d="M14.679 10.49 C14.679 5.885 12.813 2.152 10.51 2.152 8.207 2.152 6.341 5.885 6.341 10.49 6.341 15.095 8.207 18.829 10.51 18.829 12.813 18.829 14.679 15.095 14.679 10.49 Z" fill="none" stroke="#0433ff" stroke-width="1.787" stroke-opacity="1" stroke-linejoin="round" stroke-linecap="round"/>
  <path id="Elipse-copiar" d="M18.848 10.49 C18.848 5.885 15.115 2.152 10.51 2.152 5.905 2.152 2.171 5.885 2.171 10.49 2.171 15.095 5.905 18.829 10.51 18.829 15.115 18.829 18.848 15.095 18.848 10.49 Z" fill="none" stroke="#0433ff" stroke-width="1.787" stroke-opacity="1" stroke-linejoin="round" stroke-linecap="round"/>
 </g>
</svg>
