<?xml version="1.0" encoding="UTF-8"?>
<svg width="21px" height="21px" viewBox="0 0 21 21" xmlns="http://www.w3.org/2000/svg" xmlns:xlink="http://www.w3.org/1999/xlink" version="1.1">
 <!-- Generated by Pixelmator Pro 2.2 -->
 <g id="New-Group-copiar">
  <path id="Traçado-copiar" d="M1.2 9.636 C1.2 9.636 9.819 18.351 19.7 9.636" fill="none" stroke="#0433ff" stroke-width="1.787" stroke-opacity="1" stroke-linejoin="round" stroke-linecap="round"/>
  <path id="Elipse" d="M15 10.5 C15 5.253 12.985 1 10.5 1 8.015 1 6 5.253 6 10.5 6 15.747 8.015 20 10.5 20 12.985 20 15 15.747 15 10.5 Z" fill="none" stroke="#0433ff" stroke-width="1.787" stroke-opacity="1" stroke-linejoin="round" stroke-linecap="round"/>
  <path id="Elipse-copiar" d="M20 10.5 C20 5.253 15.747 1 10.5 1 5.253 1 1 5.253 1 10.5 1 15.747 5.253 20 10.5 20 15.747 20 20 15.747 20 10.5 Z" fill="none" stroke="#0433ff" stroke-width="1.787" stroke-opacity="1" stroke-linejoin="round" stroke-linecap="round"/>
 </g>
</svg>
